<svg width="22" height="22" viewBox="0 0 22 22" fill="none" xmlns="http://www.w3.org/2000/svg">
<path d="M1.06989 6.69671L4.64528 3.12132C5.81685 1.94975 7.71635 1.94975 8.88792 3.12132L18.668 12.9014C19.8395 14.0729 19.8395 15.9724 18.668 17.144L15.0926 20.7194" stroke="#4C5150" stroke-linecap="round"/>
<path d="M6.38086 4.99609L2.80508 8.57188" stroke="#4C5150" stroke-width="0.51" stroke-linecap="round"/>
<path d="M7.43262 6.04785L3.85684 9.62363" stroke="#4C5150" stroke-width="0.51" stroke-linecap="round"/>
<path d="M8.48438 7.09961L4.90859 10.6754" stroke="#4C5150" stroke-width="0.51" stroke-linecap="round"/>
<path d="M9.53613 8.15186L5.96035 11.7276" stroke="#4C5150" stroke-width="0.51" stroke-linecap="round"/>
<path d="M10.5879 9.20312L7.01211 12.7789" stroke="#4C5150" stroke-width="0.51" stroke-linecap="round"/>
<path d="M11.6396 10.2546L8.06387 13.8304" stroke="#4C5150" stroke-width="0.51" stroke-linecap="round"/>
<path d="M12.6914 11.3064L9.11562 14.8822" stroke="#4C5150" stroke-width="0.51" stroke-linecap="round"/>
<path d="M13.7432 12.3582L10.1674 15.9339" stroke="#4C5150" stroke-width="0.51" stroke-linecap="round"/>
<path d="M14.7949 13.4099L11.2191 16.9857" stroke="#4C5150" stroke-width="0.51" stroke-linecap="round"/>
<path d="M15.8467 14.4617L12.2709 18.0375" stroke="#4C5150" stroke-width="0.51" stroke-linecap="round"/>
<path d="M16.8984 15.5132L13.3227 19.089" stroke="#4C5150" stroke-width="0.51" stroke-linecap="round"/>
</svg>
