<svg width="22" height="22" viewBox="0 0 22 22" fill="none" xmlns="http://www.w3.org/2000/svg">
<mask id="mask0" mask-type="alpha" maskUnits="userSpaceOnUse" x="0" y="0" width="22" height="22">
<path fill-rule="evenodd" clip-rule="evenodd" d="M0.510254 0.607422H21.9194V21.5796H0.510254V0.607422Z" fill="white"/>
</mask>
<g mask="url(#mask0)">
<path fill-rule="evenodd" clip-rule="evenodd" d="M11.2138 0.607422C8.30641 0.607422 7.9423 0.61946 6.80082 0.670732C5.66116 0.721559 4.88288 0.899006 4.202 1.15804C3.49791 1.426 2.90077 1.78446 2.30636 2.36762C1.71104 2.95035 1.34466 3.5353 1.07158 4.22502C0.806692 4.89201 0.625548 5.65396 0.573662 6.77036C0.521777 7.88899 0.509033 8.24567 0.509033 11.0937C0.509033 13.9418 0.521777 14.2985 0.573662 15.4171C0.625548 16.5335 0.806692 17.2955 1.07158 17.9624C1.34466 18.6522 1.71104 19.2371 2.30636 19.8198C2.90077 20.403 3.49791 20.7615 4.202 21.0294C4.88288 21.2885 5.66116 21.4659 6.80082 21.5167C7.9423 21.568 8.30641 21.58 11.2138 21.58C14.1212 21.58 14.4853 21.568 15.6273 21.5167C16.7669 21.4659 17.5452 21.2885 18.2256 21.0294C18.9297 20.7615 19.5269 20.403 20.1217 19.8198C20.717 19.2371 21.0834 18.6522 21.3565 17.9624C21.6214 17.2955 21.8025 16.5335 21.8544 15.4171C21.9063 14.2985 21.919 13.9418 21.919 11.0937C21.919 8.24567 21.9063 7.88899 21.8544 6.77036C21.8025 5.65396 21.6214 4.89201 21.3565 4.22502C21.0834 3.5353 20.717 2.95035 20.1217 2.36762C19.5269 1.78446 18.9297 1.426 18.2256 1.15804C17.5452 0.899006 16.7669 0.721559 15.6273 0.670732C14.4853 0.61946 14.1212 0.607422 11.2138 0.607422ZM11.2141 2.49739C14.0724 2.49739 14.411 2.50809 15.5397 2.55847C16.5834 2.60484 17.1505 2.77605 17.5278 2.91961C18.0275 3.10999 18.3839 3.33737 18.7585 3.70385C19.133 4.07123 19.3652 4.42033 19.559 4.90942C19.7056 5.27948 19.8804 5.83455 19.9282 6.85688C19.9796 7.96258 19.9901 8.29429 19.9901 11.0942C19.9901 13.8941 19.9796 14.2258 19.9282 15.3315C19.8804 16.3539 19.7056 16.9094 19.559 17.2785C19.3652 17.7681 19.133 18.1172 18.7585 18.4846C18.3839 18.851 18.0275 19.0784 17.5278 19.2688C17.1505 19.4124 16.5834 19.5831 15.5397 19.6299C14.411 19.6803 14.0728 19.691 11.2141 19.691C8.3559 19.691 8.01773 19.6803 6.88854 19.6299C5.84491 19.5831 5.27827 19.4124 4.90096 19.2688C4.40123 19.0784 4.04485 18.851 3.67028 18.4846C3.2957 18.1172 3.06358 17.7681 2.86924 17.2785C2.72314 16.9094 2.54837 16.3539 2.50058 15.3315C2.44915 14.2258 2.43868 13.8941 2.43868 11.0942C2.43868 8.29429 2.44915 7.96258 2.50058 6.85688C2.54837 5.83455 2.72314 5.27948 2.86924 4.90942C3.06358 4.42033 3.2957 4.07123 3.67028 3.70385C4.04485 3.33737 4.40123 3.10999 4.90096 2.91961C5.27827 2.77605 5.84491 2.60484 6.88854 2.55847C8.01773 2.50809 8.35635 2.49739 11.2141 2.49739Z" fill="#F4B163"/>
</g>
<path fill-rule="evenodd" clip-rule="evenodd" d="M11.2143 14.5889C9.24402 14.5889 7.64604 13.024 7.64604 11.0934C7.64604 9.16293 9.24402 7.59801 11.2143 7.59801C13.185 7.59801 14.783 9.16293 14.783 11.0934C14.783 13.024 13.185 14.5889 11.2143 14.5889ZM11.2147 5.70996C8.17893 5.70996 5.71802 8.12065 5.71802 11.0945C5.71802 14.0687 8.17893 16.4794 11.2147 16.4794C14.2509 16.4794 16.7118 14.0687 16.7118 11.0945C16.7118 8.12065 14.2509 5.70996 11.2147 5.70996Z" fill="#F4B163"/>
<path fill-rule="evenodd" clip-rule="evenodd" d="M18.2137 5.49544C18.2137 6.19052 17.6384 6.75362 16.9293 6.75362C16.2198 6.75362 15.644 6.19052 15.644 5.49544C15.644 4.80037 16.2198 4.23682 16.9293 4.23682C17.6384 4.23682 18.2137 4.80037 18.2137 5.49544Z" fill="#F4B163"/>
</svg>
