<svg fill="#787887" xmlns="http://www.w3.org/2000/svg" xmlns:xlink="http://www.w3.org/1999/xlink" version="1.1" x="0px" y="0px" viewBox="0 0 100 100" enable-background="new 0 0 100 100" xml:space="preserve"><g><path d="M-81.191,34.358c0-1.07-0.868-1.938-1.939-1.938h-34.5c-1.07,0-1.938,0.868-1.938,1.938c0,1.071,0.868,1.939,1.938,1.939   h34.5C-82.059,36.297-81.191,35.429-81.191,34.358z"></path><path d="M-69.684,61.54h-34.5c-1.071,0-1.939,0.868-1.939,1.939s0.868,1.938,1.939,1.938h34.5c1.07,0,1.938-0.868,1.938-1.938   S-68.614,61.54-69.684,61.54z"></path><path d="M-74.468,48.896c0-1.07-0.868-1.938-1.939-1.938h-34.5c-1.071,0-1.939,0.868-1.939,1.938c0,1.071,0.868,1.939,1.939,1.939   h34.5C-75.336,50.835-74.468,49.967-74.468,48.896z"></path></g><g><path d="M-85.36,44.387l1.929-1.006c-2.026-3.846-6.078-5.979-10.186-5.985c-1.776,0-3.585,0.404-5.248,1.276   c-4.1,2.142-6.535,6.206-6.532,10.463c-0.001,1.741,0.409,3.512,1.255,5.16c2.029,3.936,6.092,6.164,10.249,6.165   c1.802,0,3.639-0.422,5.331-1.319c4.065-2.145,6.467-6.171,6.46-10.404c0.001-1.807-0.436-3.644-1.329-5.356L-85.36,44.387z    M-90.599,55.297c-1.041,0.551-2.165,0.812-3.293,0.813c-2.62,0.002-5.171-1.425-6.379-3.801c-0.531-1.036-0.775-2.108-0.776-3.174   c0.003-2.597,1.471-5.174,4.201-6.609c1.003-0.526,2.109-0.779,3.229-0.779c2.614-0.006,5.181,1.409,6.328,3.646l0,0   c0.573,1.102,0.836,2.234,0.837,3.345C-86.459,51.332-87.884,53.848-90.599,55.297z"></path><path d="M-64.307,43.452c-0.059-0.402-0.138-0.804-0.353-1.303l-0.004-0.025l-0.079-0.188c-0.018-0.036-0.018-0.058-0.038-0.095   l-0.164-0.283l-0.184-0.32c-0.651-1.111-1.711-1.574-2.512-1.77c-0.833-0.204-1.599-0.225-2.326-0.229   c-0.745,0.001-1.447,0.036-2.001,0.036l-0.544-0.014c-0.688-0.046-1.168-0.44-1.729-1.358c-0.29-0.49-0.552-1.27-0.544-1.949   l0.279-1.196c0.378-0.731,0.844-1.706,1.238-2.647l0.519-1.372c0.137-0.464,0.271-0.815,0.29-1.501l-0.32-1.247l-0.003-0.005   l-0.348-0.603l-0.596-0.699c-0.512-0.418-0.997-0.687-1.707-1.099c-2.057-1.166-5.51-2.913-7.568-4.06   c-0.634-0.335-1.277-0.707-2.324-0.733c-0.742-0.015-1.512,0.308-1.985,0.679l-1.15,1.166c-1.129,1.411-2.211,2.795-3.318,4.118   l-0.304,0.138l-1.495,0.043l-1.285-0.039l-0.477-0.213c-1.043-1.245-2.056-2.555-3.097-3.907l-1.173-1.164   c-0.497-0.358-1.232-0.629-1.935-0.618c-0.919,0.011-1.601,0.333-2.197,0.667c-2.876,1.646-5.746,3.303-8.609,4.97l-1.421,1.183   c-0.444,0.542-0.727,1.362-0.711,2.064c0.006,0.719,0.194,1.279,0.401,1.793c0.673,1.631,1.329,3.305,2.03,4.987   c-0.699,1.018-1.137,1.915-1.56,2.581l-0.429,0.314c-1.64,0.298-3.334,0.527-5.096,0.796c-0.841,0.154-1.82,0.261-2.776,1.251   c-0.896,1.059-0.886,2.093-0.919,2.918c-0.039,2.501-0.246,6.696-0.247,8.991l0.025,1.078l0.05,0.493l0.229,0.683l0.007,0.04   l0.029,0.066l0.043,0.129l0.077,0.134l0.003,0.004h0l0.015,0.027l0.012,0.02l0,0l0.242,0.418c0.723,1.106,1.489,1.258,2.069,1.468   c1.742,0.471,3.817,0.402,5.116,0.5l1,0.289l0.997,1.146c0.51,0.752,0.6,1.169,0.609,1.591c0.004,0.436-0.155,1.038-0.602,1.915   c-0.337,0.663-0.758,1.549-1.116,2.41l-0.474,1.264c-0.126,0.432-0.252,0.764-0.269,1.425l0.324,1.248l0.347,0.601l1.884-1.087   l-1.883,1.088l0.637,0.721c0.472,0.363,0.936,0.621,1.64,1.026c2.034,1.15,5.524,2.957,7.598,4.113   c0.632,0.334,1.279,0.704,2.321,0.729c0.74,0.015,1.511-0.306,1.986-0.677l1.153-1.17c1.109-1.391,2.157-2.743,3.236-4.017   l0.508-0.225l0.379-0.012l1.407,0.018l1.2-0.059c1.101,1.444,2.216,2.955,3.478,4.426l0.623,0.501l1.555,0.833   c0.666,0.357,1.46,0.344,2.115-0.034l10.154-5.862c0.709-0.41,1.128-1.181,1.085-1.999l-0.111-2.087l-0.114-0.59   c-0.592-1.721-1.275-3.245-1.827-4.725l0.055-0.389c0.442-0.846,0.927-1.676,1.445-2.486l0.256-0.182   c1.738-0.306,3.52-0.557,5.354-0.847c0.793-0.145,1.756-0.286,2.654-1.239c0.848-1.008,0.864-2.014,0.892-2.791   c0.034-2.309,0.425-5.952,0.43-8.474L-64.307,43.452z M-76.551,30.159l-0.003-0.005l0,0L-76.551,30.159z M-120.208,53.032   L-120.208,53.032l0.018-0.071L-120.208,53.032z M-122.71,55.934L-122.71,55.934l-0.004,0.001L-122.71,55.934z M-121.068,57.222   L-121.068,57.222l-0.001,0.005L-121.068,57.222z M-85.636,72.258l-0.091-0.049c-1.054-1.25-2.066-2.593-3.126-3.983l-1.24-1.151   c-0.566-0.351-1.3-0.541-1.968-0.533l-0.532,0.031l-0.888,0.04l-1.407-0.018l-1.05,0.036l-0.712,0.181l-1.368,0.607l-0.763,0.566   c-1.303,1.507-2.467,3.045-3.63,4.501c-1.547-0.86-3.712-1.999-5.535-2.981c-0.919-0.495-1.749-0.95-2.334-1.289l-0.179-0.108   c0.293-0.77,0.819-1.929,1.18-2.625c0.596-1.176,1.071-2.445,1.075-3.888c0.009-1.401-0.499-2.817-1.389-4.077   c-0.554-0.79-1.157-1.572-2.057-2.215c-0.897-0.647-2.052-1.018-3.249-1.078c-0.993-0.058-2.202-0.077-3.143-0.171l-0.679-0.109   l-0.007-0.436c-0.001-2.072,0.201-6.24,0.245-8.858l0.006-0.001c1.837-0.282,3.75-0.519,5.708-0.894l0.876-0.382l1.204-0.882   l0.509-0.526c0.795-1.185,1.248-2.234,1.737-2.892c0.44-0.595,0.817-1.439,0.809-2.343l-0.336-1.582   c-0.667-1.593-1.309-3.229-1.985-4.877c2.717-1.582,5.441-3.155,8.169-4.717c1.093,1.419,2.2,2.882,3.422,4.313l0.769,0.574   l1.35,0.6l0.745,0.184l1.921,0.059c0.711,0,1.417-0.023,2.114-0.061l0.779-0.19l1.17-0.529l0.761-0.574   c1.299-1.531,2.494-3.085,3.688-4.575l0.001-0.001c1.555,0.865,3.707,1.975,5.518,2.941c0.912,0.486,1.736,0.935,2.313,1.273   l0.23,0.142c-0.314,0.857-0.938,2.234-1.367,3.047c-0.551,1.061-0.768,2.177-0.766,3.197c0.008,1.644,0.511,3.047,1.127,4.125   c0.855,1.533,2.563,3.356,5.219,3.524l0.821,0.023c0.711-0.001,1.404-0.036,2.001-0.036l1.227,0.095l0.056,0.098l0.032,0.055   l0.067,1.121c0.005,2.08-0.362,5.62-0.422,8.225c-1.883,0.298-3.821,0.556-5.798,0.918l-0.872,0.37l-1.047,0.749l-0.555,0.578   c-0.731,1.118-1.408,2.279-2.017,3.471l-0.216,0.682l-0.194,1.36l0.104,1.035c0.636,1.781,1.358,3.37,1.899,4.906l0.022,0.415   L-85.636,72.258z"></path></g><path d="M42.8,52.682c-0.745-0.746-1.109-1.704-1.111-2.682c0.003-0.978,0.367-1.936,1.111-2.682l19.224-19.224  c0.849-0.85,0.849-2.227,0-3.076s-2.227-0.849-3.076,0L39.724,44.242c-1.586,1.584-2.388,3.681-2.385,5.758  c-0.003,2.077,0.799,4.173,2.385,5.758l19.224,19.224c0.849,0.849,2.227,0.849,3.076,0s0.849-2.227,0-3.076L42.8,52.682z"></path><path d="M-83.381,43.161l-19.224-19.224c-0.849-0.85-2.227-0.849-3.076,0c-0.849,0.849-0.849,2.227,0,3.076l19.223,19.223  c0.745,0.746,1.109,1.704,1.111,2.682c-0.002,0.978-0.366,1.936-1.111,2.682l-19.224,19.224c-0.849,0.849-0.849,2.227,0,3.076  c0.849,0.849,2.227,0.849,3.076,0l19.224-19.224c1.586-1.585,2.388-3.682,2.385-5.758C-80.993,46.842-81.795,44.745-83.381,43.161z"></path><path d="M-68.675,57.866l-19.224-19.224c-1.585-1.586-3.682-2.388-5.759-2.385c-2.077-0.003-4.174,0.799-5.758,2.385l-19.224,19.223  c-0.849,0.849-0.849,2.227,0,3.076s2.227,0.849,3.076,0l19.224-19.224c0.746-0.745,1.704-1.109,2.682-1.111  c0.978,0.003,1.936,0.366,2.682,1.111l19.224,19.224c0.849,0.849,2.227,0.849,3.076,0C-67.826,60.093-67.826,58.716-68.675,57.866z"></path><path d="M-68.675,57.867l-19.224-19.224c-1.585-1.586-3.682-2.388-5.759-2.385c-2.077-0.002-4.174,0.799-5.758,2.385l-19.224,19.224  c-0.849,0.849-0.849,2.227,0,3.076s2.227,0.849,3.076,0l19.224-19.224c0.746-0.745,1.704-1.109,2.682-1.111  c0.978,0.003,1.936,0.366,2.682,1.111l19.224,19.224c0.849,0.849,2.227,0.849,3.076,0C-67.826,60.094-67.826,58.716-68.675,57.867z"></path><g><path d="M-93.657,19.428c-11.629,0.001-21.053,9.425-21.054,21.054c0,1.14,0.095,2.26,0.271,3.354l-0.004,0   c0.001,0.007,0.005,0.017,0.006,0.024c0.002,0.012,0.001,0.026,0.003,0.039l0.006-0.001c0.536,3.568,3.221,10.233,7.337,17.094   c5.129,8.468,11.714,16.573,11.746,16.615l1.64,0.804l1.675-0.73c0.044-0.055,7.04-7.916,12.362-16.685   c3.731-6.169,5.984-12.591,6.804-17.188l0.007-0.042c0.168-1.071,0.255-2.168,0.255-3.283   C-72.604,28.853-82.028,19.429-93.657,19.428z M-83.388,58.739c-2.522,4.16-5.508,8.194-7.856,11.171   c-0.917,1.163-1.688,2.101-2.345,2.89c-0.622-0.805-1.351-1.757-2.224-2.934c-2.239-3.02-5.101-7.068-7.556-11.127   c-3.896-6.375-6.501-13.223-6.763-15.48l-0.009-0.062c-0.144-0.882-0.219-1.788-0.219-2.714   c0.017-9.224,7.479-16.687,16.704-16.704c9.224,0.017,16.687,7.48,16.704,16.704c0,0.883-0.069,1.747-0.201,2.59   C-77.845,47.009-79.957,53.094-83.388,58.739z"></path><path d="M-93.657,30.206c-5.09,0.002-9.213,4.125-9.214,9.214c0.001,5.089,4.124,9.213,9.214,9.214   c5.089-0.001,9.212-4.125,9.214-9.214C-84.445,34.33-88.567,30.207-93.657,30.206z M-93.657,44.283   c-2.685-0.005-4.859-2.178-4.864-4.864c0.005-2.685,2.179-4.859,4.864-4.864c2.685,0.005,4.859,2.178,4.864,4.864   C-88.798,42.105-90.972,44.279-93.657,44.283z"></path></g><path d="M-73.79,24.23h-39.733c-6.794,0.008-12.318,5.532-12.326,12.326v24.725c0.008,6.794,5.532,12.317,12.326,12.326h39.733  c6.794-0.008,12.318-5.532,12.326-12.326V36.557C-61.472,29.763-66.997,24.239-73.79,24.23z M-65.814,36.557v0.182h-5.003v-7.547  C-67.904,30.385-65.821,33.236-65.814,36.557z M-116.497,46.744h-5.002v-5.655h5.002V46.744z M-116.497,51.094v5.657h-5.002v-5.657  H-116.497z M-112.146,28.581h36.979v40.676h-36.979V28.581z M-70.817,51.094h5.003v5.657h-5.003V51.094z M-70.817,46.744v-5.655  h5.003v5.655H-70.817z M-116.497,29.192v7.547h-5.002v-0.182C-121.493,33.236-119.41,30.385-116.497,29.192z M-121.499,61.281  v-0.181h5.002v7.545C-119.41,67.452-121.493,64.601-121.499,61.281z M-70.817,68.646v-7.545h5.003v0.181  C-65.821,64.601-67.904,67.453-70.817,68.646z M-85.403,46.998l-10.983-7.029c-0.672-0.43-1.517-0.459-2.217-0.076  c-0.7,0.383-1.131,1.11-1.131,1.908V55.86c0,0.798,0.431,1.525,1.131,1.908c0.7,0.383,1.545,0.354,2.217-0.076l10.983-7.03  c0.625-0.4,1.003-1.09,1.003-1.832C-84.401,48.089-84.778,47.398-85.403,46.998z M-95.383,51.885v-6.109l4.773,3.055L-95.383,51.885  z"></path><path d="M-76.799,12.847h-33.716c-6.794,0.008-12.318,5.532-12.326,12.326v47.492c0.008,6.794,5.532,12.317,12.326,12.326h33.716  c6.794-0.008,12.318-5.532,12.326-12.326V25.173C-64.481,18.379-70.005,12.855-76.799,12.847z M-74.624,69.459v-4.817h5.801v4.817  H-74.624z M-112.69,28.798v4.441h-5.801v-4.441H-112.69z M-78.974,45.64h-29.366V17.197h29.366V45.64z M-112.69,37.589v4.441h-5.801  v-4.441H-112.69z M-112.69,46.381v4.78h-5.801v-4.78H-112.69z M-112.69,55.511v4.78h-5.801v-4.78H-112.69z M-112.69,64.641v4.817  h-5.801v-4.817H-112.69z M-108.34,49.991h29.366v30.65h-29.366V49.991z M-74.624,60.291v-4.78h5.801v4.78H-74.624z M-74.624,51.161  v-4.78h5.801v4.78H-74.624z M-74.624,42.03v-4.441h5.801v4.441H-74.624z M-74.624,33.239v-4.441h5.801v4.441H-74.624z   M-68.973,24.448h-5.652v-6.804C-71.554,18.55-69.293,21.179-68.973,24.448z M-112.69,17.644v6.804h-5.652  C-118.021,21.179-115.76,18.55-112.69,17.644z M-118.256,73.809h5.566v6.384C-115.624,79.328-117.782,76.884-118.256,73.809z   M-74.624,80.194v-6.384h5.566C-69.533,76.884-71.69,79.328-74.624,80.194z"></path><path d="M-75.14,56.368c-3.072,0.001-5.684,1.536-7.441,3.78l-20.368-9.377c0.126-0.62,0.374-1.195,0.374-1.852  c0-0.657-0.249-1.232-0.374-1.852l20.369-9.377c1.757,2.244,4.368,3.779,7.44,3.78c5.302-0.002,9.598-4.297,9.6-9.6  c-0.001-5.303-4.297-9.598-9.6-9.6c-5.302,0.001-9.598,4.297-9.6,9.6c0,0.657,0.249,1.232,0.374,1.852l-20.369,9.377  c-1.757-2.244-4.368-3.779-7.44-3.78c-5.302,0.002-9.598,4.297-9.6,9.6c0.001,5.303,4.297,9.598,9.6,9.6  c3.071-0.001,5.683-1.536,7.44-3.779l20.369,9.377c-0.126,0.62-0.374,1.195-0.374,1.852c0.001,5.303,4.297,9.598,9.6,9.6  c5.302-0.001,9.598-4.297,9.6-9.6C-65.542,60.665-69.837,56.37-75.14,56.368z M-75.14,26.62c2.898,0.005,5.244,2.351,5.249,5.25  c-0.005,2.898-2.351,5.244-5.249,5.249c-2.898-0.005-5.244-2.351-5.249-5.249C-80.384,28.971-78.038,26.626-75.14,26.62z   M-112.174,54.168c-2.898-0.005-5.244-2.351-5.25-5.249c0.005-2.898,2.351-5.244,5.25-5.249c2.898,0.005,5.244,2.351,5.249,5.249  C-106.931,51.817-109.276,54.163-112.174,54.168z M-75.14,71.217c-2.898-0.005-5.244-2.351-5.249-5.249  c0.005-2.898,2.351-5.244,5.249-5.249c2.898,0.005,5.244,2.351,5.249,5.249C-69.896,68.866-72.241,71.212-75.14,71.217z"></path><g><path d="M-93.657,20.601c-15.641,0.002-28.317,12.678-28.318,28.318c0.001,15.641,12.677,28.317,28.318,28.318   c15.641-0.001,28.317-12.677,28.318-28.318C-65.341,33.278-78.017,20.602-93.657,20.601z M-93.657,72.886   c-13.236-0.024-23.944-10.731-23.968-23.967c0.024-13.236,10.732-23.944,23.968-23.968c13.236,0.024,23.944,10.732,23.968,23.968   C-69.713,62.155-80.421,72.863-93.657,72.886z"></path><path d="M-93.455,57.071c1.201,0,2.175-0.974,2.175-2.175V35.081c0-1.201-0.974-2.175-2.175-2.175s-2.175,0.974-2.175,2.175v19.816   C-95.63,56.098-94.656,57.071-93.455,57.071z"></path><circle cx="-93.455" cy="63.114" r="2.256"></circle></g><g><path d="M-93.657,58.102c1.201,0,2.175-0.974,2.175-2.175V36.111c0-1.201-0.974-2.175-2.175-2.175   c-1.201,0-2.175,0.974-2.175,2.175v19.816C-95.832,57.128-94.858,58.102-93.657,58.102z"></path><circle cx="-93.657" cy="64.144" r="2.256"></circle><path d="M-66.479,62.487L-86.75,27.376l-1.884,1.088l1.883-1.088c-1.516-2.637-4.25-4-6.907-3.987   c-2.657-0.013-5.392,1.351-6.907,3.988l-20.272,35.111c-0.732,1.263-1.079,2.645-1.077,3.979c0.008,4.17,3.336,7.971,7.985,7.985   h40.542c4.648-0.014,7.976-3.815,7.984-7.985C-65.4,65.131-65.747,63.75-66.479,62.487z M-73.386,70.1h-40.542   c-2.124-0.004-3.623-1.744-3.635-3.634l0.494-1.803l20.272-35.112c0.717-1.23,1.89-1.8,3.139-1.812   c1.249,0.013,2.422,0.582,3.14,1.812l20.272,35.111l0.494,1.804C-69.764,68.355-71.263,70.096-73.386,70.1z"></path></g><path d="M-93.657,20.601c-15.641,0.001-28.317,12.677-28.318,28.318c0.001,15.641,12.677,28.317,28.318,28.318  c15.64-0.001,28.317-12.677,28.318-28.318C-65.341,33.278-78.017,20.602-93.657,20.601z M-93.657,72.887  c-13.236-0.024-23.944-10.732-23.968-23.968c0.024-13.236,10.732-23.943,23.968-23.967c13.236,0.024,23.943,10.731,23.967,23.967  C-69.714,62.155-80.421,72.863-93.657,72.887z"></path><path d="M-73.633,28.895c-5.524-5.526-12.784-8.297-20.024-8.294c-7.24-0.002-14.5,2.769-20.024,8.294  c-5.526,5.523-8.297,12.784-8.294,20.024c-0.003,7.24,2.769,14.5,8.294,20.024l0,0c5.523,5.526,12.783,8.297,20.023,8.294  c7.24,0.002,14.5-2.769,20.024-8.294c5.525-5.524,8.297-12.784,8.294-20.024C-65.337,41.679-68.108,34.419-73.633,28.895z   M-93.657,72.886c-6.141-0.002-12.262-2.336-16.948-7.02c-4.684-4.686-7.018-10.807-7.02-16.948  c0.002-5.451,1.95-10.826,5.637-15.255l33.586,33.586C-82.832,70.937-88.207,72.885-93.657,72.886z M-75.326,64.174l-33.585-33.585  c4.429-3.687,9.804-5.635,15.254-5.637c6.141,0.003,12.262,2.336,16.948,7.02c4.684,4.686,7.017,10.807,7.02,16.948  C-69.691,54.369-71.639,59.744-75.326,64.174z"></path><g><path d="M-93.657,20.601c-15.641,0.001-28.317,12.677-28.318,28.318c0.001,15.641,12.678,28.317,28.318,28.318   c15.64-0.001,28.316-12.677,28.317-28.318C-65.341,33.278-78.017,20.602-93.657,20.601z M-93.657,72.886   c-13.237-0.024-23.944-10.731-23.968-23.967c0.024-13.236,10.731-23.943,23.968-23.967c13.236,0.024,23.943,10.731,23.967,23.967   C-69.713,62.155-80.421,72.862-93.657,72.886z"></path><path d="M-82.228,46.744h-22.858c-1.201,0-2.175,0.974-2.175,2.175s0.974,2.175,2.175,2.175h22.858   c1.201,0,2.175-0.974,2.175-2.175S-81.027,46.744-82.228,46.744z"></path></g><g><path d="M-98.684,37.071c-0.672-0.43-1.516-0.459-2.217-0.076c-0.7,0.383-1.131,1.11-1.131,1.908v20.634   c0,0.798,0.431,1.525,1.131,1.908c0.7,0.383,1.545,0.354,2.217-0.076l16.119-10.318c0.625-0.4,1.003-1.09,1.003-1.832   s-0.378-1.432-1.003-1.832L-98.684,37.071z M-97.681,55.562V42.878l9.909,6.341L-97.681,55.562z"></path><path d="M-93.657,20.601c-15.641,0.001-28.317,12.677-28.318,28.318c0.001,15.641,12.678,28.317,28.318,28.318   c15.64-0.001,28.316-12.677,28.318-28.318C-65.341,33.278-78.017,20.602-93.657,20.601z M-93.657,72.886   c-13.237-0.024-23.944-10.731-23.968-23.967c0.024-13.236,10.731-23.943,23.968-23.967c13.236,0.024,23.943,10.731,23.967,23.967   C-69.713,62.155-80.421,72.862-93.657,72.886z"></path></g><g><path d="M-97.282,36.728h-8.218l-1.538,0.637l-0.637,1.538v20.634l0.637,1.538l1.538,0.637h8.218l1.538-0.637l0.637-1.538V38.904   l-0.637-1.538L-97.282,36.728z M-103.325,41.079h3.867v16.284h-3.867V41.079z"></path><path d="M-81.814,36.728h-8.217l-1.538,0.637l-0.637,1.538v20.634l0.637,1.538l1.538,0.637h8.217l1.538-0.637l0.637-1.538V38.904   l-0.637-1.538L-81.814,36.728z M-87.857,41.079h3.867v16.284h-3.867V41.079z"></path><path d="M-93.657,20.601c-15.641,0.001-28.317,12.677-28.318,28.318c0.001,15.641,12.678,28.317,28.318,28.318   c15.64-0.001,28.316-12.677,28.318-28.318C-65.341,33.278-78.017,20.602-93.657,20.601z M-93.657,72.886   c-13.237-0.024-23.944-10.731-23.968-23.967c0.024-13.236,10.731-23.943,23.968-23.967c13.236,0.024,23.943,10.731,23.967,23.967   C-69.713,62.155-80.421,72.862-93.657,72.886z"></path></g><path d="M-93.657,20.732c-13.527,0.002-24.489,10.964-24.49,24.49l0.637,1.538l1.538,0.637c2.472,0,11.011,0,20.14,0v20.865  c0.001,4.884,3.958,8.84,8.842,8.842c4.884-0.002,8.84-3.958,8.842-8.842c0-1.201-0.974-2.175-2.175-2.175  c-1.201,0-2.175,0.974-2.175,2.175c-0.004,2.479-2.012,4.487-4.491,4.491c-2.479-0.004-4.487-2.012-4.491-4.491V47.398  c8.255,0,16.292,0,20.14,0l1.538-0.637l0.637-1.538C-69.168,31.696-80.131,20.734-93.657,20.732z M-93.657,25.083  c10.377,0.019,18.805,7.883,19.917,17.965c-9.736,0-31.729,0-39.835,0C-112.462,32.966-104.034,25.102-93.657,25.083z"></path><g><path d="M-80.193,32.56l-19.556,9.228l-1.039,1.039l-9.229,19.556c-0.392,0.832-0.221,1.816,0.429,2.466   c0.65,0.651,1.635,0.821,2.467,0.429l19.556-9.229l1.039-1.039l9.229-19.556c0.392-0.832,0.221-1.816-0.429-2.467   C-78.377,32.338-79.362,32.167-80.193,32.56z M-90.128,52.449l-13.367,6.308l6.308-13.367l13.367-6.308L-90.128,52.449z"></path><circle cx="-93.657" cy="48.919" r="2.543"></circle><path d="M-93.657,20.601c-15.641,0.001-28.317,12.678-28.318,28.318c0.001,15.641,12.677,28.317,28.318,28.318   c15.641-0.002,28.317-12.678,28.318-28.318C-65.341,33.278-78.017,20.602-93.657,20.601z M-93.657,72.886   c-13.236-0.024-23.943-10.732-23.967-23.968c0.024-13.236,10.731-23.943,23.967-23.967c13.236,0.024,23.944,10.731,23.968,23.967   C-69.713,62.155-80.421,72.863-93.657,72.886z"></path></g><g><path d="M-93.657,20.601c-15.641,0.002-28.317,12.678-28.318,28.318c0.001,15.64,12.677,28.317,28.318,28.318   c15.641-0.001,28.317-12.678,28.318-28.318C-65.341,33.278-78.017,20.602-93.657,20.601z M-93.657,72.886   c-13.236-0.024-23.944-10.731-23.968-23.967c0.024-13.236,10.732-23.944,23.968-23.968c13.236,0.024,23.944,10.732,23.968,23.968   C-69.713,62.155-80.421,72.863-93.657,72.886z"></path><circle cx="-93.657" cy="48.919" r="13.042"></circle></g><g><path d="M-82.39,40.781v-9.114c-0.008-6.212-5.056-11.259-11.267-11.267c-6.211,0.008-11.259,5.056-11.267,11.267v9.114   c-5.968,0.859-10.584,5.949-10.591,12.149v12.183c0.008,6.794,5.532,12.318,12.326,12.326h19.064   c6.794-0.008,12.318-5.532,12.326-12.326V52.929C-71.806,46.73-76.422,41.639-82.39,40.781z M-93.657,24.75   c3.79,0.007,6.91,3.127,6.917,6.917v8.936h-13.834v-8.936C-100.567,27.877-97.447,24.757-93.657,24.75z M-76.149,65.112   c-0.008,4.372-3.604,7.968-7.976,7.976h-19.064c-4.372-0.008-7.968-3.604-7.976-7.976V52.929c0.008-4.372,3.604-7.968,7.976-7.976   h19.064c4.372,0.008,7.968,3.604,7.976,7.976V65.112z"></path><path d="M-94.169,53.873c-2.029,0-3.675,1.645-3.675,3.675c0,2.364,1.414,2.493,1.557,3.341c0.514,3.046,0.53,3.992,2.117,3.992   c1.584,0,1.598-0.925,2.114-3.971c0.145-0.857,1.561-1.165,1.561-3.362C-90.495,55.518-92.14,53.873-94.169,53.873z"></path></g><g><path d="M-79.27,20.399c-6.211,0.008-11.259,5.056-11.267,11.267v8.936h-16.449c-6.794,0.008-12.318,5.532-12.326,12.326v12.183   c0.008,6.794,5.532,12.318,12.326,12.326h19.065c6.794-0.008,12.317-5.532,12.326-12.326V52.929   c-0.008-6.2-4.624-11.291-10.591-12.149v-9.113c0.007-3.79,3.127-6.91,6.917-6.917c3.79,0.007,6.91,3.127,6.917,6.917v11.112   c0,1.201,0.974,2.175,2.175,2.175c1.201,0,2.175-0.974,2.175-2.175V31.667C-68.011,25.456-73.058,20.408-79.27,20.399z    M-79.946,52.929v12.183c-0.008,4.372-3.604,7.968-7.975,7.976h-19.065c-4.372-0.008-7.968-3.604-7.976-7.976V52.929   c0.008-4.372,3.604-7.968,7.976-7.976h19.065C-83.55,44.962-79.954,48.557-79.946,52.929z"></path><path d="M-97.966,53.873c-2.029,0-3.674,1.645-3.674,3.675c0,2.364,1.414,2.493,1.557,3.341c0.513,3.046,0.529,3.992,2.117,3.992   c1.584,0,1.598-0.925,2.114-3.971c0.146-0.857,1.561-1.165,1.561-3.362C-94.292,55.518-95.937,53.873-97.966,53.873z"></path></g><path d="M-93.657,20.51c-15.691,0.001-28.407,12.718-28.408,28.409c0.001,15.69,12.718,28.407,28.408,28.409  c15.691-0.002,28.408-12.719,28.409-28.409C-65.25,33.228-77.967,20.511-93.657,20.51z M-91.482,72.755V62.502  c0-1.201-0.974-2.175-2.175-2.175s-2.175,0.974-2.175,2.175v10.253c-11.487-1.063-20.54-10.089-21.651-21.562h10.342  c1.201,0,2.175-0.974,2.175-2.175c0-1.201-0.974-2.175-2.175-2.175h-10.362c1.023-11.567,10.118-20.691,21.671-21.76v10.451  c0,1.201,0.974,2.175,2.175,2.175s2.175-0.974,2.175-2.175V25.083c11.553,1.069,20.648,10.193,21.671,21.76h-10.362  c-1.201,0-2.175,0.974-2.175,2.175c0,1.201,0.974,2.175,2.175,2.175h10.342C-70.941,62.666-79.996,71.692-91.482,72.755z"></path><path d="M-67.899,71.601l-14.696-14.695c2.953-3.634,4.797-8.206,4.798-13.254c-0.001-11.67-9.459-21.127-21.128-21.129  c-11.67,0.002-21.127,9.459-21.128,21.129c0.001,11.67,9.459,21.127,21.128,21.128c5.049,0,9.621-1.844,13.254-4.798l14.695,14.696  c0.849,0.849,2.227,0.849,3.076,0C-67.049,73.828-67.049,72.451-67.899,71.601z M-98.925,60.429  c-9.265-0.017-16.761-7.513-16.778-16.778c0.017-9.265,7.513-16.761,16.778-16.778c9.265,0.017,16.761,7.513,16.778,16.778  C-82.163,52.917-89.659,60.412-98.925,60.429z"></path><path d="M-74.41,39.467c-0.336-0.813-1.13-1.342-2.009-1.342h-34.475c-0.88,0-1.673,0.53-2.01,1.342  c-0.336,0.813-0.15,1.749,0.472,2.371l17.237,17.237l1.538,0.637l1.538-0.637l17.238-17.237  C-74.26,41.216-74.073,40.28-74.41,39.467z M-93.657,54.461l-11.986-11.986h23.972L-93.657,54.461z"></path><path d="M-73.576,25.718h-40.161c-6.809,0.001-12.325,5.518-12.326,12.326v21.749c0.001,6.808,5.518,12.325,12.326,12.326h40.161  c6.808-0.001,12.325-5.518,12.326-12.326V38.045C-61.252,31.236-66.768,25.72-73.576,25.718z M-65.601,59.793  c-0.003,1.794-0.706,3.366-1.706,4.698l-18.738-15.274l18.736-15.874c1.002,1.332,1.705,2.906,1.708,4.701V59.793z M-73.576,30.069  c0.974,0.002,1.883,0.237,2.745,0.557l-22.932,19.429l-22.823-19.408c0.889-0.343,1.838-0.576,2.848-0.578H-73.576z   M-120.022,64.469c-0.99-1.328-1.688-2.891-1.691-4.675V38.045c0.003-1.766,0.691-3.313,1.663-4.634l18.598,15.816L-120.022,64.469z   M-113.737,67.769c-0.981-0.002-1.897-0.237-2.765-0.561l18.418-15.116l2.91,2.475c0.81,0.689,2.004,0.69,2.815,0.002l2.938-2.49  l18.57,15.137c-0.857,0.316-1.759,0.552-2.726,0.553H-113.737z"></path><path d="M-78.503,20.714h-30.307c-7.178,0-13.051,5.873-13.051,13.051v30.307c0,7.178,5.873,13.051,13.051,13.051h30.307  c7.178,0,13.051-5.873,13.051-13.051V33.765C-65.452,26.587-71.325,20.714-78.503,20.714z M-69.803,64.072  c0,4.798-3.903,8.701-8.701,8.701h-30.307c-4.797,0-8.701-3.903-8.701-8.701V33.765c0-4.798,3.903-8.701,8.701-8.701h30.307  c4.797,0,8.701,3.903,8.701,8.701V64.072z"></path><g><path d="M-66.263,23.235l-0.637-1.538l-1.538-0.637h-13.955c-1.202,0-2.175,0.974-2.175,2.175s0.974,2.175,2.175,2.175h8.704   l-16.419,16.419c-0.849,0.849-0.849,2.227,0,3.076s2.227,0.849,3.076,0l16.419-16.419v8.704c0,1.201,0.974,2.175,2.175,2.175   c1.201,0,2.175-0.974,2.175-2.175L-66.263,23.235z"></path><path d="M-72.761,58.82l-6.819-5.799l-0.034-0.028c-1.574-1.284-3.439-2.075-5.397-2.078c-1.707-0.011-3.442,0.653-4.781,1.917   c-0.391,0.364-0.634,0.817-0.928,1.242c-1.154-1.014-2.609-2.358-3.998-3.847c-1.457-1.563-2.846-3.285-3.858-4.606   c-0.073-0.095-0.104-0.141-0.173-0.232c0.672-0.469,1.074-0.848,1.186-0.95l0.001,0.001c0.002-0.002,0.003-0.005,0.005-0.007   c0.007-0.007,0.039-0.036,0.043-0.039l-0.009-0.009c1.463-1.376,2.204-3.252,2.19-5.068c-0.003-1.804-0.645-3.547-1.729-5.038   l-0.007-0.01l-5.309-7.207l-0.008,0.005c-1.275-1.789-3.324-2.601-5.197-2.579c-1.883,0.008-3.707,0.687-5.197,1.887l-5.109,4.142   l-0.04,0.033c-1.797,1.528-3.116,3.688-3.126,6.2c-0.004,1.308,0.386,2.657,1.153,3.87c8.485,13.534,19.48,25.325,32.392,34.735   c1.296,0.955,2.803,1.428,4.249,1.422c2.338-0.01,4.403-1.123,5.937-2.692l0.032-0.034l4.454-4.772l0.051-0.056   c1.329-1.54,2.207-3.476,2.22-5.577c0.02-1.696-0.684-3.539-2.18-4.814L-72.761,58.82z M-80.439,71.05   c-0.889,0.916-1.95,1.388-2.819,1.378l-1.684-0.586c-12.466-9.084-23.08-20.467-31.271-33.533l-0.487-1.558   c-0.01-0.89,0.507-1.958,1.593-2.885l5.072-4.113c0.711-0.587,1.68-0.923,2.456-0.915c0.807,0.022,1.292,0.249,1.681,0.774   l0.021,0.029l5.302,7.197c0.614,0.84,0.898,1.737,0.895,2.477c-0.014,0.764-0.238,1.358-0.846,1.943l-0.048,0.047l-0.007,0.006   c-0.126,0.131-1.091,0.943-2.096,1.258c-0.656,0.215-1.165,0.721-1.384,1.375c-0.219,0.655-0.118,1.365,0.276,1.932   c0.034,0.045,2.694,3.885,5.889,7.315c3.202,3.43,6.598,6.075,6.648,6.116c0.618,0.482,1.452,0.595,2.176,0.293   c0.724-0.302,1.231-0.973,1.323-1.752c0.083-0.69,0.39-1.335,0.928-1.837c0.605-0.549,1.154-0.738,1.814-0.748   c0.746-0.004,1.689,0.319,2.643,1.096l6.772,5.759l0.68,1.527c0.014,0.786-0.407,1.876-1.148,2.714L-80.439,71.05z"></path></g><g><path d="M-66.9,21.696c-0.849-0.849-2.227-0.849-3.076,0l-16.419,16.419v-8.704c0-1.201-0.974-2.175-2.175-2.175   c-1.201,0-2.175,0.974-2.175,2.175v13.955l0.637,1.538l1.538,0.637h13.955c1.201,0,2.175-0.974,2.175-2.175   c0-1.201-0.974-2.175-2.175-2.175h-8.704L-66.9,24.773C-66.05,23.923-66.05,22.546-66.9,21.696z"></path><path d="M-72.76,58.82l-6.819-5.799l-0.034-0.028c-1.574-1.283-3.439-2.074-5.397-2.078c-1.707-0.011-3.442,0.653-4.781,1.917   c-0.391,0.364-0.633,0.817-0.927,1.242c-1.154-1.014-2.61-2.358-3.998-3.847c-1.458-1.563-2.846-3.285-3.858-4.606   c-0.073-0.095-0.104-0.141-0.173-0.232c0.671-0.469,1.074-0.848,1.186-0.95l0.001,0.001c0.002-0.002,0.003-0.005,0.005-0.007   c0.007-0.007,0.039-0.036,0.043-0.039l-0.009-0.009c1.463-1.376,2.204-3.252,2.19-5.068c-0.003-1.804-0.645-3.547-1.729-5.038   l-0.007-0.01l-5.309-7.207l-0.008,0.005c-1.275-1.789-3.324-2.601-5.197-2.579c-1.883,0.008-3.707,0.687-5.197,1.886l-5.109,4.143   l-0.04,0.033c-1.797,1.528-3.116,3.688-3.126,6.2c-0.004,1.309,0.386,2.658,1.153,3.871c8.484,13.534,19.48,25.325,32.391,34.735   c1.296,0.955,2.803,1.428,4.249,1.422c2.338-0.01,4.403-1.123,5.937-2.692l0.032-0.034l4.454-4.771l0.051-0.056   c1.329-1.54,2.207-3.476,2.22-5.577c0.02-1.696-0.684-3.539-2.18-4.814L-72.76,58.82z M-80.439,71.05   c-0.889,0.916-1.95,1.388-2.82,1.378l-1.684-0.586c-12.465-9.084-23.079-20.467-31.271-33.533l-0.487-1.558   c-0.009-0.89,0.506-1.957,1.593-2.884l5.072-4.113c0.711-0.587,1.68-0.923,2.456-0.915c0.807,0.022,1.292,0.249,1.681,0.774   l0.021,0.029l5.302,7.197c0.613,0.84,0.897,1.737,0.894,2.477c-0.014,0.765-0.238,1.359-0.846,1.943l-0.048,0.047l-0.007,0.006   c-0.126,0.131-1.09,0.943-2.095,1.258c-0.656,0.215-1.165,0.721-1.384,1.375c-0.219,0.655-0.118,1.365,0.276,1.932   c0.034,0.045,2.694,3.886,5.889,7.316c3.202,3.43,6.598,6.075,6.648,6.116c0.618,0.482,1.452,0.595,2.175,0.293   c0.724-0.302,1.231-0.973,1.323-1.752c0.084-0.69,0.39-1.335,0.928-1.837c0.605-0.549,1.154-0.738,1.814-0.748   c0.746-0.004,1.69,0.319,2.644,1.097l6.772,5.759l0.68,1.527c0.014,0.785-0.407,1.876-1.148,2.714L-80.439,71.05z"></path></g><path d="M-66.491,31.912c0.002-2.594-0.99-5.212-2.968-7.19c-1.978-1.979-4.595-2.971-7.19-2.969  c-2.595-0.002-5.212,0.99-7.19,2.969l-8.334,8.334c-1.979,1.978-2.971,4.595-2.969,7.19c-0.002,1.881,0.703,3.686,1.744,5.339  l-3.589,3.589c-1.64-1.036-3.434-1.741-5.31-1.74c-2.596-0.003-5.23,0.976-7.222,2.969l-8.334,8.334  c-1.979,1.978-2.971,4.595-2.969,7.19c-0.002,2.594,0.99,5.212,2.969,7.19c1.978,1.979,4.595,2.971,7.19,2.969  c2.594,0.002,5.211-0.99,7.189-2.968l8.335-8.335l-1.538-1.538l1.538,1.538c1.978-1.978,2.97-4.595,2.968-7.189  c0.002-1.881-0.703-3.686-1.743-5.339l3.591-3.591c1.652,1.04,3.458,1.745,5.339,1.743c2.594,0.002,5.212-0.99,7.19-2.969  l8.334-8.334l-1.538-1.538l1.538,1.538C-67.481,37.123-66.489,34.506-66.491,31.912z M-96.522,57.592  c-0.002,1.503-0.565,2.983-1.694,4.114l0,0l-8.334,8.335c-1.131,1.129-2.611,1.692-4.114,1.694  c-1.504-0.002-2.984-0.564-4.114-1.694c-1.13-1.131-1.693-2.611-1.695-4.114c0.002-1.503,0.564-2.983,1.694-4.113l8.334-8.335  c1.133-1.133,2.622-1.692,4.145-1.695c0.765,0.001,1.522,0.165,2.235,0.466l-4.204,4.204c-0.849,0.849-0.849,2.227,0,3.076  c0.849,0.849,2.227,0.849,3.076,0l4.201-4.201C-96.688,56.049-96.523,56.814-96.522,57.592z M-72.536,36.025L-72.536,36.025  l-8.334,8.334c-1.13,1.13-2.611,1.692-4.114,1.694c-0.778-0.001-1.543-0.166-2.263-0.468l2.804-2.804  c0.849-0.85,0.849-2.227,0-3.076s-2.227-0.849-3.076,0l-2.804,2.804c-0.302-0.72-0.467-1.486-0.469-2.263  c0.002-1.504,0.565-2.983,1.694-4.114l8.334-8.335c1.131-1.13,2.611-1.692,4.114-1.694c1.503,0.002,2.983,0.565,4.114,1.694  c1.13,1.131,1.692,2.611,1.694,4.114C-70.844,33.414-71.406,34.894-72.536,36.025z"></path><g><path d="M-96.873,64.446l-5.673,5.673c-1.692,1.691-3.912,2.535-6.155,2.536c-2.243-0.002-4.464-0.845-6.155-2.536   c-1.691-1.692-2.535-3.912-2.537-6.155c0.002-2.243,0.845-4.464,2.537-6.155l11.346-11.346c1.692-1.691,3.912-2.534,6.155-2.537   c2.243,0.002,4.463,0.845,6.155,2.537c0.849,0.849,2.227,0.849,3.076,0s0.849-2.227,0-3.076c-2.54-2.541-5.897-3.813-9.232-3.811   c-3.335-0.002-6.692,1.271-9.232,3.81l-11.345,11.346c-2.541,2.539-3.813,5.897-3.811,9.232c-0.002,3.335,1.27,6.692,3.811,9.232   c2.539,2.54,5.897,3.813,9.231,3.81c3.335,0.002,6.692-1.27,9.232-3.81l5.673-5.673c0.849-0.849,0.849-2.227,0-3.076   C-94.646,63.597-96.023,63.597-96.873,64.446z"></path><path d="M-69.381,24.643c-2.54-2.54-5.897-3.813-9.232-3.811c-3.335-0.002-6.692,1.271-9.231,3.811l-5.673,5.673   c-0.849,0.849-0.849,2.227,0,3.076c0.849,0.849,2.227,0.849,3.076,0v0l5.673-5.673c1.692-1.691,3.912-2.534,6.155-2.537   c2.243,0.002,4.463,0.845,6.155,2.537l0,0c1.691,1.692,2.534,3.912,2.536,6.155c-0.002,2.243-0.845,4.463-2.537,6.156   l-11.345,11.345c-1.692,1.691-3.912,2.534-6.156,2.536c-2.243-0.002-4.464-0.845-6.155-2.536c-0.849-0.85-2.227-0.85-3.076,0   s-0.849,2.227,0,3.076c2.538,2.54,5.896,3.813,9.231,3.81c3.334,0.002,6.692-1.27,9.232-3.81l11.346-11.346   c2.54-2.54,3.813-5.897,3.81-9.232C-65.569,30.54-66.841,27.183-69.381,24.643z"></path></g><path d="M-79.91,46.743h-11.572V35.171c0-1.201-0.974-2.175-2.175-2.175s-2.175,0.974-2.175,2.175v11.572h-11.572  c-1.201,0-2.175,0.974-2.175,2.175s0.974,2.175,2.175,2.175h11.572v11.572c0,1.201,0.974,2.175,2.175,2.175s2.175-0.974,2.175-2.175  V51.094h11.572c1.201,0,2.175-0.974,2.175-2.175S-78.708,46.743-79.91,46.743z"></path><path d="M-67.899,71.601l-14.696-14.696c2.953-3.634,4.797-8.205,4.798-13.254c-0.001-11.67-9.459-21.127-21.128-21.129  c-11.67,0.002-21.127,9.459-21.129,21.129c0.001,11.67,9.459,21.127,21.129,21.128c5.048,0,9.62-1.844,13.254-4.798l14.696,14.695  c0.849,0.85,2.227,0.85,3.076,0C-67.049,73.828-67.049,72.451-67.899,71.601z M-98.924,60.429  c-9.265-0.017-16.761-7.513-16.778-16.778c0.017-9.265,7.513-16.761,16.778-16.778c9.265,0.017,16.761,7.513,16.778,16.778  C-82.163,52.917-89.659,60.412-98.924,60.429z M-88.089,43.652c0,1.201-0.974,2.175-2.175,2.175h-6.486v6.486  c0,1.201-0.974,2.175-2.175,2.175c-1.201,0-2.175-0.974-2.175-2.175v-6.486h-6.486c-1.201,0-2.175-0.974-2.175-2.175  c0-1.201,0.974-2.175,2.175-2.175h6.486v-6.486c0-1.201,0.974-2.175,2.175-2.175c1.201,0,2.175,0.974,2.175,2.175v6.486h6.486  C-89.063,41.476-88.089,42.45-88.089,43.652z"></path><g><path d="M-67.899,71.601l-14.696-14.696c2.953-3.634,4.797-8.205,4.798-13.254c-0.001-11.67-9.459-21.127-21.128-21.129   c-11.67,0.002-21.127,9.459-21.128,21.129c0.001,11.67,9.459,21.127,21.128,21.128c5.049,0,9.621-1.844,13.254-4.798l14.695,14.695   c0.849,0.85,2.227,0.85,3.076,0C-67.049,73.828-67.049,72.451-67.899,71.601z M-98.925,60.429   c-9.265-0.017-16.761-7.513-16.778-16.778c0.017-9.265,7.513-16.761,16.778-16.778c9.265,0.017,16.761,7.513,16.778,16.778   C-82.163,52.917-89.659,60.412-98.925,60.429z"></path><path d="M-90.264,41.476h-17.322c-1.201,0-2.175,0.974-2.175,2.175c0,1.201,0.974,2.175,2.175,2.175h17.322   c1.201,0,2.175-0.974,2.175-2.175C-88.089,42.45-89.063,41.476-90.264,41.476z"></path></g><path d="M-90.581,48.919l12.99-12.99c0.849-0.849,0.849-2.227,0-3.076c-0.849-0.849-2.227-0.849-3.076,0l-12.99,12.99l-12.99-12.99  c-0.849-0.849-2.227-0.849-3.076,0c-0.849,0.849-0.849,2.227,0,3.076l12.99,12.99l-12.99,12.99c-0.849,0.85-0.849,2.227,0,3.076  c0.849,0.849,2.227,0.849,3.076,0l12.99-12.99l12.99,12.99c0.849,0.849,2.227,0.849,3.076,0c0.849-0.849,0.849-2.227,0-3.076  L-90.581,48.919z"></path><g><path d="M-73.062,59.122l-6.819-5.799l-0.034-0.028c-1.574-1.284-3.439-2.075-5.397-2.078c-1.707-0.011-3.442,0.653-4.781,1.917   c-0.391,0.364-0.634,0.817-0.928,1.242c-1.154-1.014-2.609-2.358-3.998-3.847c-1.457-1.563-2.846-3.285-3.858-4.606   c-0.073-0.095-0.104-0.141-0.173-0.232c0.672-0.469,1.074-0.848,1.186-0.95l0.001,0.001c0.002-0.002,0.003-0.005,0.005-0.007   c0.007-0.007,0.039-0.036,0.043-0.039l-0.009-0.009c1.463-1.376,2.204-3.252,2.19-5.068c-0.003-1.804-0.645-3.547-1.729-5.038   l-0.007-0.01l-5.309-7.207l-0.008,0.005c-1.275-1.789-3.324-2.601-5.197-2.579c-1.883,0.008-3.707,0.687-5.197,1.886l-5.109,4.143   l-0.04,0.033c-1.797,1.528-3.116,3.688-3.126,6.2c-0.004,1.308,0.386,2.657,1.153,3.87c8.485,13.534,19.48,25.325,32.392,34.735   c1.296,0.955,2.803,1.428,4.249,1.422c2.338-0.01,4.403-1.123,5.937-2.692l0.032-0.034l4.454-4.771l0.05-0.056   c1.329-1.54,2.207-3.476,2.221-5.577c0.02-1.696-0.684-3.539-2.18-4.814L-73.062,59.122z M-80.741,71.352   c-0.889,0.916-1.95,1.388-2.819,1.378l-1.684-0.586c-12.466-9.084-23.08-20.467-31.271-33.533l-0.487-1.558   c-0.01-0.89,0.507-1.958,1.593-2.885l5.072-4.113c0.711-0.587,1.68-0.923,2.456-0.915c0.807,0.022,1.292,0.249,1.681,0.774   l0.021,0.029l5.302,7.197c0.614,0.84,0.898,1.737,0.895,2.477c-0.014,0.764-0.238,1.358-0.846,1.943l-0.048,0.047l-0.007,0.006   c-0.126,0.131-1.091,0.943-2.096,1.258c-0.656,0.215-1.165,0.721-1.384,1.375c-0.219,0.655-0.118,1.365,0.276,1.932   c0.034,0.045,2.694,3.885,5.889,7.315c3.202,3.43,6.598,6.075,6.648,6.116c0.618,0.482,1.452,0.595,2.176,0.293   c0.724-0.302,1.231-0.973,1.323-1.752c0.083-0.69,0.39-1.335,0.927-1.837c0.605-0.549,1.155-0.738,1.814-0.748   c0.746-0.004,1.689,0.319,2.643,1.096l6.772,5.759l0.68,1.527c0.014,0.785-0.407,1.875-1.147,2.713L-80.741,71.352z"></path><path d="M-74.126,31.999l7.528-7.528c0.849-0.849,0.849-2.227,0-3.076c-0.849-0.849-2.227-0.849-3.076,0l-7.528,7.528l-7.528-7.528   c-0.849-0.849-2.227-0.849-3.076,0c-0.849,0.849-0.849,2.227,0,3.076l7.528,7.528l-7.528,7.528c-0.849,0.849-0.849,2.227,0,3.076   c0.849,0.849,2.227,0.849,3.076,0l7.528-7.528l7.528,7.528c0.849,0.849,2.227,0.849,3.076,0c0.849-0.85,0.849-2.227,0-3.076   L-74.126,31.999z"></path></g><g><path d="M-93.657,20.712c-15.579,0.002-28.205,12.628-28.207,28.207c0.001,15.579,12.628,28.205,28.207,28.206   c15.578-0.001,28.205-12.627,28.206-28.206C-65.452,33.34-78.078,20.714-93.657,20.712z M-93.657,72.775   c-13.174-0.024-23.832-10.682-23.856-23.856c0.024-13.174,10.682-23.832,23.856-23.856c13.174,0.024,23.832,10.682,23.856,23.856   C-69.825,62.093-80.482,72.751-93.657,72.775z"></path><circle cx="-93.455" cy="63.114" r="2.247"></circle><path d="M-93.455,30.377c-5.984,0.001-10.832,4.849-10.833,10.833c0,1.201,0.974,2.175,2.175,2.175   c1.201,0,2.175-0.974,2.175-2.175c0.007-3.579,2.903-6.476,6.482-6.482c3.58,0.007,6.476,2.903,6.482,6.482   c-0.007,3.58-2.903,6.476-6.482,6.482c-1.201,0-2.175,0.974-2.175,2.175v6.34c0,1.201,0.974,2.175,2.175,2.175   c1.201,0,2.175-0.974,2.175-2.175v-4.384c4.941-1.007,8.657-5.375,8.658-10.613C-82.624,35.226-87.472,30.378-93.455,30.377z"></path></g><path d="M-78.503,20.714h-30.307c-7.178,0-13.051,5.873-13.051,13.051v30.307c0,7.178,5.874,13.051,13.051,13.051h30.307  c7.178,0,13.051-5.873,13.051-13.051V33.765C-65.452,26.587-71.325,20.714-78.503,20.714z M-69.803,64.072  c0,4.798-3.903,8.701-8.701,8.701h-30.307c-4.798,0-8.701-3.903-8.701-8.701V33.765c0-4.798,3.903-8.701,8.701-8.701h30.307  c4.798,0,8.701,3.903,8.701,8.701V64.072z M-76.835,37.338c0.731,0.732,0.731,1.918,0,2.65l-22.336,22.336l-1.425,0.546  l-1.359-0.695l-8.657-10.734h0c-0.65-0.805-0.524-1.986,0.282-2.635c0.805-0.65,1.985-0.523,2.636,0.282l7.347,9.111l20.862-20.861  C-78.754,36.606-77.568,36.606-76.835,37.338z"></path><path d="M-76.835,36.427c-0.732-0.732-1.919-0.732-2.65,0l-20.862,20.861l-7.347-9.111c-0.65-0.805-1.83-0.932-2.635-0.282  c-0.806,0.65-0.932,1.829-0.282,2.635h0l8.657,10.734l1.359,0.695l1.425-0.546l22.336-22.336  C-76.104,38.346-76.104,37.159-76.835,36.427z"></path><g><path d="M-73.633,28.895c-5.524-5.526-12.784-8.297-20.024-8.294c-7.24-0.002-14.5,2.769-20.024,8.294   c-5.526,5.523-8.297,12.784-8.294,20.024c-0.003,7.24,2.769,14.5,8.294,20.024c5.523,5.525,12.783,8.296,20.024,8.294   c7.24,0.002,14.5-2.769,20.024-8.294c5.525-5.524,8.297-12.784,8.294-20.024C-65.337,41.679-68.108,34.419-73.633,28.895z    M-76.709,65.867c-4.686,4.684-10.807,7.018-16.948,7.02c-6.142-0.002-12.262-2.336-16.948-7.02   c-4.684-4.686-7.018-10.807-7.02-16.948c0.003-6.141,2.336-12.262,7.02-16.948c4.686-4.684,10.806-7.018,16.948-7.02   c6.141,0.003,12.262,2.336,16.948,7.02c4.684,4.686,7.017,10.806,7.02,16.948C-69.692,55.06-72.025,61.181-76.709,65.867z"></path><path d="M-76.835,36.426c-0.732-0.732-1.919-0.732-2.65,0l-20.862,20.861l-7.347-9.111c-0.651-0.805-1.83-0.932-2.636-0.282   s-0.932,1.83-0.282,2.635h0l8.657,10.734l1.359,0.695l1.425-0.546l22.336-22.336C-76.103,38.344-76.103,37.158-76.835,36.426z"></path></g><path d="M-68.734,62.555c-2.9-4.809-7.574-8.775-13.21-11.216c3.241-3.084,5.281-7.422,5.282-12.251l-0.075-1.626  c-0.76-7.913-7.047-14.323-14.947-15.216l-1.926-0.107c-9.362,0.001-16.948,7.588-16.949,16.95c0,4.832,2.045,9.172,5.29,12.257  c-5.795,2.509-10.575,6.625-13.456,11.613c-0.758,1.311-1.117,2.744-1.115,4.128c0.01,4.534,3.698,8.585,8.687,8.612h35.072  c5.05-0.009,8.604-4.153,8.613-8.643C-67.47,65.543-67.877,63.978-68.734,62.555z M-76.084,71.348h-35.072  c-2.473-0.004-4.332-2.109-4.337-4.262c0.002-0.651,0.158-1.3,0.534-1.956c2.878-5.014,8.231-9.294,14.69-11.07  c0.848-0.234,1.473-0.959,1.58-1.832c0.107-0.873-0.325-1.728-1.092-2.159c-3.841-2.167-6.433-6.263-6.432-10.979  c0.013-6.958,5.642-12.587,12.599-12.6l1.447,0.081c5.799,0.625,10.566,5.483,11.095,11.296l0.057,1.223  c0,4.717-2.591,8.812-6.431,10.979c-0.767,0.432-1.199,1.286-1.092,2.159c0.107,0.873,0.732,1.598,1.58,1.832  c6.315,1.737,11.573,5.867,14.494,10.737c0.449,0.75,0.639,1.51,0.641,2.259C-71.843,69.312-73.566,71.344-76.084,71.348z"></path><g><path d="M-58.958,39.009l-1.538-0.637c-4.372-0.008-7.968-3.604-7.976-7.976l-0.637-1.538l-1.538-0.637h-46.019l-1.538,0.637   l-0.637,1.538c-0.008,4.372-3.604,7.968-7.976,7.976l-1.538,0.637l-0.637,1.538v16.744l0.637,1.538l1.538,0.637   c4.372,0.008,7.968,3.604,7.976,7.976l0.637,1.538l1.538,0.637h46.019l1.538-0.637l0.637-1.538   c0.008-4.372,3.604-7.968,7.976-7.976l1.538-0.637l0.637-1.538V40.547L-58.958,39.009z M-72.6,65.267h-42.114   c-0.911-5.047-4.882-9.018-9.929-9.929V42.5c5.047-0.911,9.017-4.882,9.929-9.929H-72.6c0.911,5.047,4.882,9.017,9.929,9.929   v12.838C-67.719,56.249-71.689,60.22-72.6,65.267z"></path><path d="M-78.629,38.214h-30.057l-1.538,0.637l-0.637,1.538v16.565l0.637,1.538l1.538,0.637h30.057l1.538-0.637l0.637-1.538V40.389   l-0.637-1.538L-78.629,38.214z M-106.51,42.564h25.706l0,12.215h-25.707V42.564z"></path></g><g><path d="M-60.013,42.515l0.131-0.039c0.926-0.273,1.56-1.121,1.56-2.086v-9.993l-0.637-1.538l-1.538-0.637h-66.321l-1.538,0.637   l-0.637,1.538v9.993c0,0.966,0.634,1.813,1.56,2.086l0.13,0.039c3.146,0.947,4.566,3.454,4.608,6.155   c-0.043,2.738-1.504,5.282-4.704,6.189c-0.943,0.261-1.595,1.117-1.595,2.096v10.488l0.637,1.538l1.538,0.637h66.321l1.538-0.637   l0.637-1.538V56.954c0-0.979-0.651-1.835-1.595-2.096c-3.202-0.908-4.662-3.451-4.706-6.189   C-64.579,45.968-63.159,43.461-60.013,42.515z M-68.971,48.669c-0.038,3.876,2.222,7.775,6.3,9.636v6.962h-61.971l0-6.962   c4.078-1.862,6.337-5.76,6.299-9.636c0.037-3.868-2.211-7.769-6.299-9.635v-6.463h61.971v6.463   C-66.76,40.899-69.009,44.8-68.971,48.669z"></path><path d="M-78.629,38.214h-30.057l-1.538,0.637l-0.637,1.538v16.565l0.637,1.538l1.538,0.637h30.057l1.538-0.637l0.637-1.538V40.389   l-0.637-1.538L-78.629,38.214z M-106.51,42.564h25.706l0,12.215h-25.707V42.564z"></path></g><g><path d="M-93.657,20.601c-15.641,0.002-28.317,12.678-28.318,28.318c0.001,15.64,12.677,28.317,28.318,28.318   c15.641-0.001,28.317-12.678,28.318-28.318C-65.341,33.278-78.017,20.602-93.657,20.601z M-93.657,72.886   c-13.236-0.024-23.944-10.731-23.968-23.967c0.024-13.237,10.732-23.944,23.968-23.968c13.236,0.024,23.944,10.731,23.968,23.968   C-69.713,62.155-80.421,72.863-93.657,72.886z"></path><path d="M-92.375,50.257l-0.557-1.345V32.382c0-1.201-0.974-2.175-2.175-2.175c-1.201,0-2.175,0.974-2.175,2.175h0v16.529   c0,1.658,0.659,3.249,1.832,4.421l7.332,7.333c0.849,0.849,2.227,0.849,3.076,0c0.849-0.849,0.849-2.227,0-3.076L-92.375,50.257z"></path></g><path d="M-81.057,46.744h-39.362c-0.172,0-0.28,0.145-0.44,0.182l14.432-14.432c0.849-0.849,0.849-2.227,0-3.076  s-2.227-0.849-3.076,0h0l-14.729,14.729c-1.314,1.312-1.979,3.052-1.977,4.772c-0.002,1.719,0.663,3.459,1.977,4.772l14.729,14.729  c0.849,0.849,2.227,0.849,3.076,0s0.849-2.227,0-3.076l-14.432-14.432c0.16,0.038,0.268,0.182,0.44,0.182h39.362  c8.615,0.016,15.586,6.986,15.601,15.601c0,1.201,0.974,2.175,2.175,2.175c1.201,0,2.175-0.974,2.175-2.175  C-61.106,55.675-70.037,46.745-81.057,46.744z"></path><path d="M-65.808,39.146v26.037c-0.008,6.794-5.532,12.317-12.326,12.326h-31.772c-6.794-0.008-12.318-5.532-12.326-12.326V33.411  c0.008-6.794,5.532-12.318,12.326-12.326h26.037c1.201,0,2.175,0.974,2.175,2.175c0,1.201-0.974,2.175-2.175,2.175h-26.037  c-4.372,0.008-7.968,3.604-7.976,7.976v31.772c0.008,4.372,3.604,7.967,7.976,7.975h31.772c4.372-0.008,7.967-3.604,7.975-7.975  V39.146h0c0-1.201,0.974-2.175,2.175-2.175C-66.782,36.971-65.808,37.945-65.808,39.146z M-95.248,48.144l-0.91,2.25l1.01,1.01  l2.25-0.91c0.804-0.325,1.535-0.809,2.148-1.422l19.306-19.306c0.849-0.849,0.849-2.227,0-3.076c-0.849-0.849-2.227-0.849-3.076,0  l-19.306,19.306C-94.44,46.61-94.923,47.34-95.248,48.144z M-66.047,25.395l0.115-0.115c1.133-1.133,1.133-2.969,0-4.102  c-1.133-1.133-2.969-1.133-4.102,0l-0.115,0.115c-1.133,1.133-1.133,2.969,0,4.102C-69.016,26.528-67.18,26.528-66.047,25.395z"></path><path d="M-87.97,44.439l0.115,1.357l2.167-0.184h-2.175c-0.006,3.199-2.595,5.788-5.794,5.794c-3.199-0.006-5.788-2.595-5.794-5.794  h-2.175l2.167,0.184l0.115-1.356c0.101-1.197-0.787-2.25-1.984-2.351c-1.197-0.101-2.249,0.787-2.351,1.984l-0.115,1.356  l-0.008,0.184c0.001,5.603,4.541,10.143,10.144,10.144c5.603-0.001,10.143-4.541,10.144-10.144l-0.008-0.184l-0.115-1.357  c-0.102-1.197-1.154-2.085-2.351-1.984C-87.183,42.19-88.072,43.242-87.97,44.439L-87.97,44.439z"></path><path d="M-75.335,44.677c1.201,0,2.175-0.974,2.175-2.175V30.597c0-0.557-0.213-1.113-0.637-1.538  c-0.425-0.425-0.981-0.637-1.538-0.637H-87.24c-1.201,0-2.175,0.974-2.175,2.175s0.974,2.175,2.175,2.175h6.653l-13.071,13.071  l-13.071-13.071h6.653c1.201,0,2.175-0.974,2.175-2.175s-0.974-2.175-2.175-2.175l-11.904,0c-0.557,0-1.113,0.213-1.538,0.637  c-0.425,0.425-0.637,0.982-0.637,1.538v11.904c0,1.201,0.974,2.175,2.175,2.175s2.175-0.974,2.175-2.175h0v-6.653l13.071,13.071  l-13.071,13.071v-6.653c0-1.201-0.974-2.175-2.175-2.175s-2.175,0.974-2.175,2.175v11.904c0,0.557,0.212,1.113,0.637,1.538  l1.538,0.637h11.904c1.201,0,2.175-0.974,2.175-2.175s-0.974-2.175-2.175-2.175h-6.653l13.071-13.071l13.071,13.071h-6.653  c-1.201,0-2.175,0.974-2.175,2.175s0.974,2.175,2.175,2.175h11.905l1.538-0.637c0.425-0.425,0.637-0.981,0.637-1.538V55.336  c0-1.201-0.974-2.175-2.175-2.175c-1.201,0-2.175,0.974-2.175,2.175v6.653l-13.071-13.071l13.071-13.071v6.653  C-77.51,43.702-76.537,44.677-75.335,44.677z"></path><path d="M-74.876,50.477c-0.984-0.689-2.34-0.45-3.029,0.534l-3.564,5.09c-1.099-5.172-3.617-10.112-7.631-14.125  c-5.522-5.523-12.779-8.297-20.016-8.294c-0.749,0-1.497,0.029-2.245,0.088c-1.197,0.095-2.092,1.142-1.997,2.34  c0.094,1.198,1.142,2.092,2.339,1.998l1.903-0.075c6.138,0.002,12.256,2.337,16.94,7.02c3.536,3.537,5.722,7.892,6.588,12.456  l-5.866-4.107c-0.984-0.689-2.341-0.45-3.029,0.534c-0.689,0.984-0.45,2.341,0.534,3.03l9.751,6.828l0.733,0.162  c0.176,0.046,0.296,0.201,0.486,0.201c0.057,0,0.091-0.056,0.146-0.061l0.26,0.058l0.748-0.476c0.15-0.102,0.311-0.14,0.431-0.275  l0.225-0.143l6.828-9.752C-73.653,52.523-73.892,51.166-74.876,50.477z"></path><g><path d="M-78.024,38.524l1.014-1.321l2.652-9.898c0.311-1.161-0.378-2.353-1.538-2.664c-1.161-0.311-2.353,0.378-2.664,1.538v0   l-1.287,4.804l-2.74-4.747c-2.07-3.597-5.774-5.441-9.401-5.428c-3.628-0.013-7.331,1.831-9.401,5.428l-5.379,9.316   c-0.6,1.04-0.244,2.371,0.796,2.972c1.041,0.6,2.371,0.244,2.972-0.796l5.379-9.317c1.271-2.19,3.414-3.24,5.633-3.253   c2.219,0.013,4.362,1.063,5.633,3.253l2.757,4.774l-4.889-1.31c-1.161-0.311-2.353,0.378-2.664,1.538   c-0.311,1.161,0.378,2.353,1.538,2.664l9.939,2.663L-78.024,38.524z"></path><path d="M-96.982,65.449h-10.758c-3.804-0.007-6.506-3.124-6.518-6.518c0.002-1.076,0.268-2.169,0.884-3.239l2.757-4.775   l1.31,4.888c0.311,1.161,1.504,1.849,2.664,1.538c1.161-0.311,1.849-1.504,1.538-2.664l-2.663-9.939   c-0.311-1.16-1.504-1.849-2.664-1.538l-9.898,2.652c-1.161,0.311-1.849,1.504-1.538,2.664c0.311,1.161,1.504,1.849,2.664,1.538   l4.804-1.287l-2.74,4.747c-0.999,1.727-1.469,3.6-1.468,5.414c0.011,5.674,4.539,10.854,10.868,10.868h10.758   c1.201,0,2.175-0.974,2.175-2.175C-94.807,66.423-95.781,65.449-96.982,65.449z"></path><path d="M-66.838,53.516l-5.379-9.316c-0.6-1.041-1.931-1.397-2.971-0.796c-1.04,0.6-1.397,1.931-0.796,2.971l5.379,9.316   c0.616,1.07,0.883,2.163,0.884,3.239c-0.012,3.394-2.713,6.512-6.518,6.518h-5.513l3.579-3.579c0.849-0.85,0.849-2.227,0-3.076   s-2.227-0.849-3.076,0l-7.276,7.276c-0.85,0.849-0.85,2.227,0,3.076l7.246,7.246c0.849,0.849,2.227,0.849,3.076,0   c0.849-0.849,0.849-2.227,0-3.076L-81.72,69.8l5.481,0c6.329-0.014,10.857-5.195,10.868-10.868   C-65.369,57.117-65.839,55.244-66.838,53.516z"></path></g><g><path d="M-70.81,35.871h-39.451l-1.044-2.671c-1.384-3.54-4.795-5.87-8.596-5.87c-1.202,0-2.175,0.974-2.175,2.175   s0.974,2.175,2.175,2.175c2.009,0,3.813,1.232,4.544,3.103l7.85,20.087c1.196,3.059,4.144,5.072,7.429,5.073h22.568   c3.285,0,6.233-2.013,7.429-5.073l4.457-11.405c0.26-0.664,0.386-1.356,0.385-2.03C-65.244,38.476-67.618,35.884-70.81,35.871z    M-69.676,41.884l-4.457,11.403c-0.543,1.391-1.884,2.306-3.377,2.306h-22.568c-1.493,0-2.834-0.915-3.377-2.306l-5.106-13.067   h37.751c0.7,0.001,1.216,0.585,1.22,1.214L-69.676,41.884z"></path><circle cx="-76.793" cy="66.071" r="4.255"></circle><circle cx="-100.761" cy="66.252" r="4.255"></circle></g><path d="M-67.96,20.995l-1.867-0.396l-15.711,3.928l-15.711-3.928l-0.528,0.112l-0.528-0.112l-16.239,4.06  c-0.968,0.242-1.647,1.112-1.647,2.11v48.359c0,0.668,0.31,1.303,0.837,1.715l1.866,0.395l15.711-3.928l15.711,3.928l0.528-0.112  l0.527,0.112l16.239-4.059c0.969-0.242,1.648-1.112,1.648-2.11V22.71C-67.124,22.041-67.434,21.406-67.96,20.995z M-115.84,28.468  l11.888-2.972v43.875l-11.888,2.972V28.468z M-99.601,25.495l11.888,2.972v43.875l-11.888-2.972V25.495z M-71.474,69.37  l-11.888,2.973V28.468l11.888-2.972V69.37z"></path><path d="M-74.888,35.372c-0.024-0.026-0.012-0.065-0.037-0.09l-11.263-11.263c-0.032-0.032-0.083-0.018-0.116-0.048  c-0.955-1.132-2.332-1.892-3.93-1.893h-17.133c-3.813,0.008-6.898,3.093-6.906,6.906v39.87c0.008,3.813,3.093,6.898,6.906,6.906  h27.419c3.813-0.008,6.898-3.094,6.906-6.906V39.271C-73.042,37.692-73.78,36.327-74.888,35.372z M-85.026,31.333l2.73,2.729h-2.73  V31.333z M-77.392,68.854c-0.002,1.391-1.165,2.553-2.556,2.556h-27.419c-1.391-0.003-2.554-1.165-2.556-2.556v-39.87  c0.002-1.391,1.165-2.553,2.556-2.556h17.133l0.858,0.858v8.952l0.637,1.538l1.538,0.637h8.951l0.858,0.858V68.854z"></path><g><path d="M-82.133,55.86l1.538-0.637l0.637-1.538V36.886c-0.008-4.401-3.575-7.967-7.976-7.976h-24.515   c-4.401,0.008-7.967,3.575-7.976,7.976v10.998c0.008,4.401,3.575,7.967,7.976,7.976H-82.133z M-116.074,47.884V36.886   c0.004-1.98,1.646-3.622,3.625-3.625h24.515c1.98,0.004,3.622,1.646,3.625,3.625v14.623h-28.14   C-114.428,51.506-116.07,49.863-116.074,47.884z"></path><path d="M-74.061,61.756l0.637-1.538V37.619c0-1.201-0.974-2.175-2.175-2.175c-1.201,0-2.175,0.974-2.175,2.175v20.424h-33.941   c-1.202,0-2.175,0.974-2.175,2.175c0,1.201,0.974,2.175,2.175,2.175h36.116L-74.061,61.756z"></path><path d="M-69.065,41.978c-1.201,0-2.175,0.974-2.175,2.175v20.424h-33.941c-1.202,0-2.175,0.974-2.175,2.175   c0,1.201,0.974,2.175,2.175,2.175h36.116l1.538-0.637l0.637-1.538V44.153C-66.89,42.952-67.864,41.978-69.065,41.978z"></path></g><g><path d="M-93.657,36.48c-6.871,0.001-12.437,5.568-12.439,12.439c0.001,6.87,5.568,12.437,12.439,12.438   c6.87-0.001,12.437-5.568,12.438-12.438C-81.22,42.049-86.787,36.482-93.657,36.48z M-93.657,57.007   c-4.466-0.008-8.08-3.622-8.088-8.088c0.008-4.466,3.622-8.08,8.088-8.088c4.466,0.008,8.08,3.622,8.088,8.088   C-85.577,53.385-89.191,56.999-93.657,57.007z"></path><path d="M-93.657,32.08c1.201,0,2.175-0.974,2.175-2.175v-6.897c0-1.201-0.974-2.175-2.175-2.175s-2.175,0.974-2.175,2.175v6.897   C-95.832,31.106-94.858,32.08-93.657,32.08z"></path><path d="M-108.64,37.012c0.849,0.849,2.227,0.849,3.076,0s0.849-2.227,0-3.076l-4.877-4.877c-0.849-0.849-2.227-0.849-3.076,0   c-0.85,0.849-0.85,2.227,0,3.076L-108.64,37.012z"></path><path d="M-110.496,48.919c0-1.201-0.974-2.175-2.175-2.175h-6.897c-1.201,0-2.175,0.974-2.175,2.175   c0,1.201,0.974,2.175,2.175,2.175h6.897C-111.47,51.094-110.496,50.12-110.496,48.919z"></path><path d="M-108.64,60.826l-4.877,4.877c-0.85,0.849-0.85,2.227,0,3.076c0.849,0.849,2.227,0.849,3.076,0l4.877-4.877   c0.849-0.849,0.849-2.227,0-3.076S-107.791,59.976-108.64,60.826z"></path><path d="M-93.657,65.757c-1.201,0-2.175,0.974-2.175,2.175v6.897c0,1.201,0.974,2.175,2.175,2.175s2.175-0.974,2.175-2.175v-6.897   C-91.482,66.732-92.456,65.757-93.657,65.757z"></path><path d="M-78.674,60.826c-0.849-0.849-2.227-0.849-3.076,0s-0.849,2.227,0,3.076l4.877,4.877c0.849,0.849,2.227,0.849,3.076,0   c0.849-0.85,0.849-2.227,0-3.076L-78.674,60.826z"></path><path d="M-67.746,46.744h-6.897c-1.201,0-2.175,0.974-2.175,2.175c0,1.201,0.974,2.175,2.175,2.175h6.897   c1.201,0,2.175-0.974,2.175-2.175C-65.571,47.718-66.544,46.744-67.746,46.744z"></path><path d="M-78.674,37.012l4.877-4.877c0.849-0.849,0.849-2.227,0-3.076c-0.85-0.849-2.227-0.849-3.076,0l-4.877,4.877   c-0.849,0.85-0.849,2.227,0,3.076S-79.523,37.862-78.674,37.012z"></path></g></svg>