<svg width="19" height="24" viewBox="0 0 19 24" fill="none" xmlns="http://www.w3.org/2000/svg">
<mask id="mask0" mask-type="alpha" maskUnits="userSpaceOnUse" x="0" y="0" width="19" height="24">
<path fill-rule="evenodd" clip-rule="evenodd" d="M0.730225 0.350586H18.2818V23.7907H0.730225V0.350586Z" fill="white"/>
</mask>
<g mask="url(#mask0)">
<path fill-rule="evenodd" clip-rule="evenodd" d="M3.39724 13.9045C3.69495 14.0305 3.96286 13.9095 4.04919 13.5686C4.10927 13.3321 4.25123 12.7354 4.31531 12.4874C4.40298 12.1492 4.36872 12.0314 4.12752 11.7374C3.60328 11.0974 3.26818 10.2688 3.26818 9.09603C3.26818 5.69365 5.73048 2.64783 9.68004 2.64783C13.1775 2.64783 15.0986 4.8572 15.0986 7.80823C15.0986 11.69 13.4369 14.9664 10.9702 14.9664C9.60706 14.9664 8.58796 13.8014 8.91372 12.3733C9.30622 10.6677 10.0637 8.82642 10.0637 7.59521C10.0637 6.49329 9.4918 5.57356 8.3076 5.57356C6.91424 5.57356 5.7959 7.06334 5.7959 9.05877C5.7959 10.3295 6.21155 11.1895 6.21155 11.1895C6.21155 11.1895 4.78615 17.4329 4.53649 18.5261C4.03851 20.7033 4.46128 23.3727 4.49777 23.6423C4.51913 23.8029 4.71717 23.8402 4.80706 23.7196C4.93567 23.5466 6.59471 21.4288 7.15766 19.3133C7.31787 18.7147 8.07441 15.6132 8.07441 15.6132C8.5261 16.5054 9.84915 17.2907 11.255 17.2907C15.4417 17.2907 18.2819 13.3455 18.2819 8.06358C18.2819 4.06998 15.0105 0.350586 10.0378 0.350586C3.85027 0.350586 0.730225 4.93679 0.730225 8.76109C0.730225 11.0772 1.57843 13.1375 3.39724 13.9045Z" fill="#EE8A73"/>
</g>
</svg>
