<svg fill="#787887" xmlns="http://www.w3.org/2000/svg" xmlns:xlink="http://www.w3.org/1999/xlink" version="1.1" x="0px" y="0px" viewBox="0 0 100 100" enable-background="new 0 0 100 100" xml:space="preserve"><g><path d="M-85.36,44.387l1.929-1.006c-2.026-3.846-6.078-5.979-10.186-5.985c-1.776,0-3.585,0.404-5.248,1.276   c-4.1,2.142-6.535,6.206-6.532,10.463c-0.001,1.741,0.409,3.512,1.255,5.16c2.029,3.936,6.092,6.164,10.249,6.165   c1.802,0,3.639-0.422,5.331-1.319c4.065-2.145,6.467-6.171,6.46-10.404c0.001-1.807-0.436-3.644-1.329-5.356L-85.36,44.387z    M-90.599,55.297c-1.041,0.551-2.165,0.812-3.293,0.813c-2.62,0.002-5.171-1.425-6.379-3.801c-0.531-1.036-0.775-2.108-0.776-3.174   c0.003-2.597,1.471-5.174,4.201-6.609c1.003-0.526,2.109-0.779,3.229-0.779c2.614-0.006,5.181,1.409,6.328,3.646l0,0   c0.573,1.102,0.836,2.234,0.837,3.345C-86.459,51.332-87.884,53.848-90.599,55.297z"></path><path d="M-64.307,43.452c-0.059-0.402-0.138-0.804-0.353-1.303l-0.004-0.025l-0.079-0.188c-0.018-0.036-0.018-0.058-0.038-0.095   l-0.164-0.283l-0.184-0.32c-0.651-1.111-1.711-1.574-2.512-1.77c-0.833-0.204-1.599-0.225-2.326-0.229   c-0.745,0.001-1.447,0.036-2.001,0.036l-0.544-0.014c-0.688-0.046-1.168-0.44-1.729-1.358c-0.29-0.49-0.552-1.27-0.544-1.949   l0.279-1.196c0.378-0.731,0.844-1.706,1.238-2.647l0.519-1.372c0.137-0.464,0.271-0.815,0.29-1.501l-0.32-1.247l-0.003-0.005   l-0.348-0.603l-0.596-0.699c-0.512-0.418-0.997-0.687-1.707-1.099c-2.057-1.166-5.51-2.913-7.568-4.06   c-0.634-0.335-1.277-0.707-2.324-0.733c-0.742-0.015-1.512,0.308-1.985,0.679l-1.15,1.166c-1.129,1.411-2.211,2.795-3.318,4.118   l-0.304,0.138l-1.495,0.043l-1.285-0.039l-0.477-0.213c-1.043-1.245-2.056-2.555-3.097-3.907l-1.173-1.164   c-0.497-0.358-1.232-0.629-1.935-0.618c-0.919,0.011-1.601,0.333-2.197,0.667c-2.876,1.646-5.746,3.303-8.609,4.97l-1.421,1.183   c-0.444,0.542-0.727,1.362-0.711,2.064c0.006,0.719,0.194,1.279,0.401,1.793c0.673,1.631,1.329,3.305,2.03,4.987   c-0.699,1.018-1.137,1.915-1.56,2.581l-0.429,0.314c-1.64,0.298-3.334,0.527-5.096,0.796c-0.841,0.154-1.82,0.261-2.776,1.251   c-0.896,1.059-0.886,2.093-0.919,2.918c-0.039,2.501-0.246,6.696-0.247,8.991l0.025,1.078l0.05,0.493l0.229,0.683l0.007,0.04   l0.029,0.066l0.043,0.129l0.077,0.134l0.003,0.004h0l0.015,0.027l0.012,0.02l0,0l0.242,0.418c0.723,1.106,1.489,1.258,2.069,1.468   c1.742,0.471,3.817,0.402,5.116,0.5l1,0.289l0.997,1.146c0.51,0.752,0.6,1.169,0.609,1.591c0.004,0.436-0.155,1.038-0.602,1.915   c-0.337,0.663-0.758,1.549-1.116,2.41l-0.474,1.264c-0.126,0.432-0.252,0.764-0.269,1.425l0.324,1.248l0.347,0.601l1.884-1.087   l-1.883,1.088l0.637,0.721c0.472,0.363,0.936,0.621,1.64,1.026c2.034,1.15,5.524,2.957,7.598,4.113   c0.632,0.334,1.279,0.704,2.321,0.729c0.74,0.015,1.511-0.306,1.986-0.677l1.153-1.17c1.109-1.391,2.157-2.743,3.236-4.017   l0.508-0.225l0.379-0.012l1.407,0.018l1.2-0.059c1.101,1.444,2.216,2.955,3.478,4.426l0.623,0.501l1.555,0.833   c0.666,0.357,1.46,0.344,2.115-0.034l10.154-5.862c0.709-0.41,1.128-1.181,1.085-1.999l-0.111-2.087l-0.114-0.59   c-0.592-1.721-1.275-3.245-1.827-4.725l0.055-0.389c0.442-0.846,0.927-1.676,1.445-2.486l0.256-0.182   c1.738-0.306,3.52-0.557,5.354-0.847c0.793-0.145,1.756-0.286,2.654-1.239c0.848-1.008,0.864-2.014,0.892-2.791   c0.034-2.309,0.425-5.952,0.43-8.474L-64.307,43.452z M-76.551,30.159l-0.003-0.005l0,0L-76.551,30.159z M-120.208,53.032   L-120.208,53.032l0.018-0.071L-120.208,53.032z M-122.71,55.934L-122.71,55.934l-0.004,0.001L-122.71,55.934z M-121.068,57.222   L-121.068,57.222l-0.001,0.005L-121.068,57.222z M-85.636,72.258l-0.091-0.049c-1.054-1.25-2.066-2.593-3.126-3.983l-1.24-1.151   c-0.566-0.351-1.3-0.541-1.968-0.533l-0.532,0.031l-0.888,0.04l-1.407-0.018l-1.05,0.036l-0.712,0.181l-1.368,0.607l-0.763,0.566   c-1.303,1.507-2.467,3.045-3.63,4.501c-1.547-0.86-3.712-1.999-5.535-2.981c-0.919-0.495-1.749-0.95-2.334-1.289l-0.179-0.108   c0.293-0.77,0.819-1.929,1.18-2.625c0.596-1.176,1.071-2.445,1.075-3.888c0.009-1.401-0.499-2.817-1.389-4.077   c-0.554-0.79-1.157-1.572-2.057-2.215c-0.897-0.647-2.052-1.018-3.249-1.078c-0.993-0.058-2.202-0.077-3.143-0.171l-0.679-0.109   l-0.007-0.436c-0.001-2.072,0.201-6.24,0.245-8.858l0.006-0.001c1.837-0.282,3.75-0.519,5.708-0.894l0.876-0.382l1.204-0.882   l0.509-0.526c0.795-1.185,1.248-2.234,1.737-2.892c0.44-0.595,0.817-1.439,0.809-2.343l-0.336-1.582   c-0.667-1.593-1.309-3.229-1.985-4.877c2.717-1.582,5.441-3.155,8.169-4.717c1.093,1.419,2.2,2.882,3.422,4.313l0.769,0.574   l1.35,0.6l0.745,0.184l1.921,0.059c0.711,0,1.417-0.023,2.114-0.061l0.779-0.19l1.17-0.529l0.761-0.574   c1.299-1.531,2.494-3.085,3.688-4.575l0.001-0.001c1.555,0.865,3.707,1.975,5.518,2.941c0.912,0.486,1.736,0.935,2.313,1.273   l0.23,0.142c-0.314,0.857-0.938,2.234-1.367,3.047c-0.551,1.061-0.768,2.177-0.766,3.197c0.008,1.644,0.511,3.047,1.127,4.125   c0.855,1.533,2.563,3.356,5.219,3.524l0.821,0.023c0.711-0.001,1.404-0.036,2.001-0.036l1.227,0.095l0.056,0.098l0.032,0.055   l0.067,1.121c0.005,2.08-0.362,5.62-0.422,8.225c-1.883,0.298-3.821,0.556-5.798,0.918l-0.872,0.37l-1.047,0.749l-0.555,0.578   c-0.731,1.118-1.408,2.279-2.017,3.471l-0.216,0.682l-0.194,1.36l0.104,1.035c0.636,1.781,1.358,3.37,1.899,4.906l0.022,0.415   L-85.636,72.258z"></path></g><path d="M60.276,44.242L41.052,25.018c-0.849-0.85-2.227-0.849-3.076,0s-0.849,2.227,0,3.076L57.2,47.318  c0.745,0.746,1.109,1.704,1.111,2.682c-0.002,0.978-0.366,1.936-1.111,2.682L37.976,71.906c-0.849,0.849-0.849,2.227,0,3.076  s2.227,0.849,3.076,0l19.224-19.224c1.586-1.585,2.388-3.682,2.385-5.758C62.664,47.923,61.862,45.826,60.276,44.242z"></path><path d="M-68.675,57.866l-19.224-19.224c-1.585-1.586-3.682-2.388-5.759-2.385c-2.077-0.003-4.174,0.799-5.758,2.385l-19.224,19.223  c-0.849,0.849-0.849,2.227,0,3.076s2.227,0.849,3.076,0l19.224-19.224c0.746-0.745,1.704-1.109,2.682-1.111  c0.978,0.003,1.936,0.366,2.682,1.111l19.224,19.224c0.849,0.849,2.227,0.849,3.076,0C-67.826,60.093-67.826,58.716-68.675,57.866z"></path><path d="M-68.675,57.867l-19.224-19.224c-1.585-1.586-3.682-2.388-5.759-2.385c-2.077-0.002-4.174,0.799-5.758,2.385l-19.224,19.224  c-0.849,0.849-0.849,2.227,0,3.076s2.227,0.849,3.076,0l19.224-19.224c0.746-0.745,1.704-1.109,2.682-1.111  c0.978,0.003,1.936,0.366,2.682,1.111l19.224,19.224c0.849,0.849,2.227,0.849,3.076,0C-67.826,60.094-67.826,58.716-68.675,57.867z"></path><g><path d="M-93.657,19.428c-11.629,0.001-21.053,9.425-21.054,21.054c0,1.14,0.095,2.26,0.271,3.354l-0.004,0   c0.001,0.007,0.005,0.017,0.006,0.024c0.002,0.012,0.001,0.026,0.003,0.039l0.006-0.001c0.536,3.568,3.221,10.233,7.337,17.094   c5.129,8.468,11.714,16.573,11.746,16.615l1.64,0.804l1.675-0.73c0.044-0.055,7.04-7.916,12.362-16.685   c3.731-6.169,5.984-12.591,6.804-17.188l0.007-0.042c0.168-1.071,0.255-2.168,0.255-3.283   C-72.604,28.853-82.028,19.429-93.657,19.428z M-83.388,58.739c-2.522,4.16-5.508,8.194-7.856,11.171   c-0.917,1.163-1.688,2.101-2.345,2.89c-0.622-0.805-1.351-1.757-2.224-2.934c-2.239-3.02-5.101-7.068-7.556-11.127   c-3.896-6.375-6.501-13.223-6.763-15.48l-0.009-0.062c-0.144-0.882-0.219-1.788-0.219-2.714   c0.017-9.224,7.479-16.687,16.704-16.704c9.224,0.017,16.687,7.48,16.704,16.704c0,0.883-0.069,1.747-0.201,2.59   C-77.845,47.009-79.957,53.094-83.388,58.739z"></path><path d="M-93.657,30.206c-5.09,0.002-9.213,4.125-9.214,9.214c0.001,5.089,4.124,9.213,9.214,9.214   c5.089-0.001,9.212-4.125,9.214-9.214C-84.445,34.33-88.567,30.207-93.657,30.206z M-93.657,44.283   c-2.685-0.005-4.859-2.178-4.864-4.864c0.005-2.685,2.179-4.859,4.864-4.864c2.685,0.005,4.859,2.178,4.864,4.864   C-88.798,42.105-90.972,44.279-93.657,44.283z"></path></g><path d="M-73.79,24.23h-39.733c-6.794,0.008-12.318,5.532-12.326,12.326v24.725c0.008,6.794,5.532,12.317,12.326,12.326h39.733  c6.794-0.008,12.318-5.532,12.326-12.326V36.557C-61.472,29.763-66.997,24.239-73.79,24.23z M-65.814,36.557v0.182h-5.003v-7.547  C-67.904,30.385-65.821,33.236-65.814,36.557z M-116.497,46.744h-5.002v-5.655h5.002V46.744z M-116.497,51.094v5.657h-5.002v-5.657  H-116.497z M-112.146,28.581h36.979v40.676h-36.979V28.581z M-70.817,51.094h5.003v5.657h-5.003V51.094z M-70.817,46.744v-5.655  h5.003v5.655H-70.817z M-116.497,29.192v7.547h-5.002v-0.182C-121.493,33.236-119.41,30.385-116.497,29.192z M-121.499,61.281  v-0.181h5.002v7.545C-119.41,67.452-121.493,64.601-121.499,61.281z M-70.817,68.646v-7.545h5.003v0.181  C-65.821,64.601-67.904,67.453-70.817,68.646z M-85.403,46.998l-10.983-7.029c-0.672-0.43-1.517-0.459-2.217-0.076  c-0.7,0.383-1.131,1.11-1.131,1.908V55.86c0,0.798,0.431,1.525,1.131,1.908c0.7,0.383,1.545,0.354,2.217-0.076l10.983-7.03  c0.625-0.4,1.003-1.09,1.003-1.832C-84.401,48.089-84.778,47.398-85.403,46.998z M-95.383,51.885v-6.109l4.773,3.055L-95.383,51.885  z"></path><path d="M-76.799,12.847h-33.716c-6.794,0.008-12.318,5.532-12.326,12.326v47.492c0.008,6.794,5.532,12.317,12.326,12.326h33.716  c6.794-0.008,12.318-5.532,12.326-12.326V25.173C-64.481,18.379-70.005,12.855-76.799,12.847z M-74.624,69.459v-4.817h5.801v4.817  H-74.624z M-112.69,28.798v4.441h-5.801v-4.441H-112.69z M-78.974,45.64h-29.366V17.197h29.366V45.64z M-112.69,37.589v4.441h-5.801  v-4.441H-112.69z M-112.69,46.381v4.78h-5.801v-4.78H-112.69z M-112.69,55.511v4.78h-5.801v-4.78H-112.69z M-112.69,64.641v4.817  h-5.801v-4.817H-112.69z M-108.34,49.991h29.366v30.65h-29.366V49.991z M-74.624,60.291v-4.78h5.801v4.78H-74.624z M-74.624,51.161  v-4.78h5.801v4.78H-74.624z M-74.624,42.03v-4.441h5.801v4.441H-74.624z M-74.624,33.239v-4.441h5.801v4.441H-74.624z   M-68.973,24.448h-5.652v-6.804C-71.554,18.55-69.293,21.179-68.973,24.448z M-112.69,17.644v6.804h-5.652  C-118.021,21.179-115.76,18.55-112.69,17.644z M-118.256,73.809h5.566v6.384C-115.624,79.328-117.782,76.884-118.256,73.809z   M-74.624,80.194v-6.384h5.566C-69.533,76.884-71.69,79.328-74.624,80.194z"></path><path d="M-75.14,56.368c-3.072,0.001-5.684,1.536-7.441,3.78l-20.368-9.377c0.126-0.62,0.374-1.195,0.374-1.852  c0-0.657-0.249-1.232-0.374-1.852l20.369-9.377c1.757,2.244,4.368,3.779,7.44,3.78c5.302-0.002,9.598-4.297,9.6-9.6  c-0.001-5.303-4.297-9.598-9.6-9.6c-5.302,0.001-9.598,4.297-9.6,9.6c0,0.657,0.249,1.232,0.374,1.852l-20.369,9.377  c-1.757-2.244-4.368-3.779-7.44-3.78c-5.302,0.002-9.598,4.297-9.6,9.6c0.001,5.303,4.297,9.598,9.6,9.6  c3.071-0.001,5.683-1.536,7.44-3.779l20.369,9.377c-0.126,0.62-0.374,1.195-0.374,1.852c0.001,5.303,4.297,9.598,9.6,9.6  c5.302-0.001,9.598-4.297,9.6-9.6C-65.542,60.665-69.837,56.37-75.14,56.368z M-75.14,26.62c2.898,0.005,5.244,2.351,5.249,5.25  c-0.005,2.898-2.351,5.244-5.249,5.249c-2.898-0.005-5.244-2.351-5.249-5.249C-80.384,28.971-78.038,26.626-75.14,26.62z   M-112.174,54.168c-2.898-0.005-5.244-2.351-5.25-5.249c0.005-2.898,2.351-5.244,5.25-5.249c2.898,0.005,5.244,2.351,5.249,5.249  C-106.931,51.817-109.276,54.163-112.174,54.168z M-75.14,71.217c-2.898-0.005-5.244-2.351-5.249-5.249  c0.005-2.898,2.351-5.244,5.249-5.249c2.898,0.005,5.244,2.351,5.249,5.249C-69.896,68.866-72.241,71.212-75.14,71.217z"></path><g><path d="M-93.657,20.601c-15.641,0.002-28.317,12.678-28.318,28.318c0.001,15.641,12.677,28.317,28.318,28.318   c15.641-0.001,28.317-12.677,28.318-28.318C-65.341,33.278-78.017,20.602-93.657,20.601z M-93.657,72.886   c-13.236-0.024-23.944-10.731-23.968-23.967c0.024-13.236,10.732-23.944,23.968-23.968c13.236,0.024,23.944,10.732,23.968,23.968   C-69.713,62.155-80.421,72.863-93.657,72.886z"></path><path d="M-93.455,57.071c1.201,0,2.175-0.974,2.175-2.175V35.081c0-1.201-0.974-2.175-2.175-2.175s-2.175,0.974-2.175,2.175v19.816   C-95.63,56.098-94.656,57.071-93.455,57.071z"></path><circle cx="-93.455" cy="63.114" r="2.256"></circle></g><g><path d="M-93.657,58.102c1.201,0,2.175-0.974,2.175-2.175V36.111c0-1.201-0.974-2.175-2.175-2.175   c-1.201,0-2.175,0.974-2.175,2.175v19.816C-95.832,57.128-94.858,58.102-93.657,58.102z"></path><circle cx="-93.657" cy="64.144" r="2.256"></circle><path d="M-66.479,62.487L-86.75,27.376l-1.884,1.088l1.883-1.088c-1.516-2.637-4.25-4-6.907-3.987   c-2.657-0.013-5.392,1.351-6.907,3.988l-20.272,35.111c-0.732,1.263-1.079,2.645-1.077,3.979c0.008,4.17,3.336,7.971,7.985,7.985   h40.542c4.648-0.014,7.976-3.815,7.984-7.985C-65.4,65.131-65.747,63.75-66.479,62.487z M-73.386,70.1h-40.542   c-2.124-0.004-3.623-1.744-3.635-3.634l0.494-1.803l20.272-35.112c0.717-1.23,1.89-1.8,3.139-1.812   c1.249,0.013,2.422,0.582,3.14,1.812l20.272,35.111l0.494,1.804C-69.764,68.355-71.263,70.096-73.386,70.1z"></path></g><path d="M-93.657,20.601c-15.641,0.001-28.317,12.677-28.318,28.318c0.001,15.641,12.677,28.317,28.318,28.318  c15.64-0.001,28.317-12.677,28.318-28.318C-65.341,33.278-78.017,20.602-93.657,20.601z M-93.657,72.887  c-13.236-0.024-23.944-10.732-23.968-23.968c0.024-13.236,10.732-23.943,23.968-23.967c13.236,0.024,23.943,10.731,23.967,23.967  C-69.714,62.155-80.421,72.863-93.657,72.887z"></path><g><path d="M-93.657,20.601c-15.641,0.001-28.317,12.677-28.318,28.318c0.001,15.641,12.678,28.317,28.318,28.318   c15.64-0.001,28.316-12.677,28.317-28.318C-65.341,33.278-78.017,20.602-93.657,20.601z M-93.657,72.886   c-13.237-0.024-23.944-10.731-23.968-23.967c0.024-13.236,10.731-23.943,23.968-23.967c13.236,0.024,23.943,10.731,23.967,23.967   C-69.713,62.155-80.421,72.862-93.657,72.886z"></path><path d="M-82.228,46.744h-22.858c-1.201,0-2.175,0.974-2.175,2.175s0.974,2.175,2.175,2.175h22.858   c1.201,0,2.175-0.974,2.175-2.175S-81.027,46.744-82.228,46.744z"></path></g><g><path d="M-98.684,37.071c-0.672-0.43-1.516-0.459-2.217-0.076c-0.7,0.383-1.131,1.11-1.131,1.908v20.634   c0,0.798,0.431,1.525,1.131,1.908c0.7,0.383,1.545,0.354,2.217-0.076l16.119-10.318c0.625-0.4,1.003-1.09,1.003-1.832   s-0.378-1.432-1.003-1.832L-98.684,37.071z M-97.681,55.562V42.878l9.909,6.341L-97.681,55.562z"></path><path d="M-93.657,20.601c-15.641,0.001-28.317,12.677-28.318,28.318c0.001,15.641,12.678,28.317,28.318,28.318   c15.64-0.001,28.316-12.677,28.318-28.318C-65.341,33.278-78.017,20.602-93.657,20.601z M-93.657,72.886   c-13.237-0.024-23.944-10.731-23.968-23.967c0.024-13.236,10.731-23.943,23.968-23.967c13.236,0.024,23.943,10.731,23.967,23.967   C-69.713,62.155-80.421,72.862-93.657,72.886z"></path></g><path d="M-93.657,20.732c-13.527,0.002-24.489,10.964-24.49,24.49l0.637,1.538l1.538,0.637c2.472,0,11.011,0,20.14,0v20.865  c0.001,4.884,3.958,8.84,8.842,8.842c4.884-0.002,8.84-3.958,8.842-8.842c0-1.201-0.974-2.175-2.175-2.175  c-1.201,0-2.175,0.974-2.175,2.175c-0.004,2.479-2.012,4.487-4.491,4.491c-2.479-0.004-4.487-2.012-4.491-4.491V47.398  c8.255,0,16.292,0,20.14,0l1.538-0.637l0.637-1.538C-69.168,31.696-80.131,20.734-93.657,20.732z M-93.657,25.083  c10.377,0.019,18.805,7.883,19.917,17.965c-9.736,0-31.729,0-39.835,0C-112.462,32.966-104.034,25.102-93.657,25.083z"></path><g><path d="M-82.39,40.781v-9.114c-0.008-6.212-5.056-11.259-11.267-11.267c-6.211,0.008-11.259,5.056-11.267,11.267v9.114   c-5.968,0.859-10.584,5.949-10.591,12.149v12.183c0.008,6.794,5.532,12.318,12.326,12.326h19.064   c6.794-0.008,12.318-5.532,12.326-12.326V52.929C-71.806,46.73-76.422,41.639-82.39,40.781z M-93.657,24.75   c3.79,0.007,6.91,3.127,6.917,6.917v8.936h-13.834v-8.936C-100.567,27.877-97.447,24.757-93.657,24.75z M-76.149,65.112   c-0.008,4.372-3.604,7.968-7.976,7.976h-19.064c-4.372-0.008-7.968-3.604-7.976-7.976V52.929c0.008-4.372,3.604-7.968,7.976-7.976   h19.064c4.372,0.008,7.968,3.604,7.976,7.976V65.112z"></path><path d="M-94.169,53.873c-2.029,0-3.675,1.645-3.675,3.675c0,2.364,1.414,2.493,1.557,3.341c0.514,3.046,0.53,3.992,2.117,3.992   c1.584,0,1.598-0.925,2.114-3.971c0.145-0.857,1.561-1.165,1.561-3.362C-90.495,55.518-92.14,53.873-94.169,53.873z"></path></g><g><path d="M-79.27,20.399c-6.211,0.008-11.259,5.056-11.267,11.267v8.936h-16.449c-6.794,0.008-12.318,5.532-12.326,12.326v12.183   c0.008,6.794,5.532,12.318,12.326,12.326h19.065c6.794-0.008,12.317-5.532,12.326-12.326V52.929   c-0.008-6.2-4.624-11.291-10.591-12.149v-9.113c0.007-3.79,3.127-6.91,6.917-6.917c3.79,0.007,6.91,3.127,6.917,6.917v11.112   c0,1.201,0.974,2.175,2.175,2.175c1.201,0,2.175-0.974,2.175-2.175V31.667C-68.011,25.456-73.058,20.408-79.27,20.399z    M-79.946,52.929v12.183c-0.008,4.372-3.604,7.968-7.975,7.976h-19.065c-4.372-0.008-7.968-3.604-7.976-7.976V52.929   c0.008-4.372,3.604-7.968,7.976-7.976h19.065C-83.55,44.962-79.954,48.557-79.946,52.929z"></path><path d="M-97.966,53.873c-2.029,0-3.674,1.645-3.674,3.675c0,2.364,1.414,2.493,1.557,3.341c0.513,3.046,0.529,3.992,2.117,3.992   c1.584,0,1.598-0.925,2.114-3.971c0.146-0.857,1.561-1.165,1.561-3.362C-94.292,55.518-95.937,53.873-97.966,53.873z"></path></g><path d="M-93.657,20.51c-15.691,0.001-28.407,12.718-28.408,28.409c0.001,15.69,12.718,28.407,28.408,28.409  c15.691-0.002,28.408-12.719,28.409-28.409C-65.25,33.228-77.967,20.511-93.657,20.51z M-91.482,72.755V62.502  c0-1.201-0.974-2.175-2.175-2.175s-2.175,0.974-2.175,2.175v10.253c-11.487-1.063-20.54-10.089-21.651-21.562h10.342  c1.201,0,2.175-0.974,2.175-2.175c0-1.201-0.974-2.175-2.175-2.175h-10.362c1.023-11.567,10.118-20.691,21.671-21.76v10.451  c0,1.201,0.974,2.175,2.175,2.175s2.175-0.974,2.175-2.175V25.083c11.553,1.069,20.648,10.193,21.671,21.76h-10.362  c-1.201,0-2.175,0.974-2.175,2.175c0,1.201,0.974,2.175,2.175,2.175h10.342C-70.941,62.666-79.996,71.692-91.482,72.755z"></path><path d="M-67.899,71.601l-14.696-14.695c2.953-3.634,4.797-8.206,4.798-13.254c-0.001-11.67-9.459-21.127-21.128-21.129  c-11.67,0.002-21.127,9.459-21.128,21.129c0.001,11.67,9.459,21.127,21.128,21.128c5.049,0,9.621-1.844,13.254-4.798l14.695,14.696  c0.849,0.849,2.227,0.849,3.076,0C-67.049,73.828-67.049,72.451-67.899,71.601z M-98.925,60.429  c-9.265-0.017-16.761-7.513-16.778-16.778c0.017-9.265,7.513-16.761,16.778-16.778c9.265,0.017,16.761,7.513,16.778,16.778  C-82.163,52.917-89.659,60.412-98.925,60.429z"></path><path d="M-78.503,20.714h-30.307c-7.178,0-13.051,5.873-13.051,13.051v30.307c0,7.178,5.873,13.051,13.051,13.051h30.307  c7.178,0,13.051-5.873,13.051-13.051V33.765C-65.452,26.587-71.325,20.714-78.503,20.714z M-69.803,64.072  c0,4.798-3.903,8.701-8.701,8.701h-30.307c-4.797,0-8.701-3.903-8.701-8.701V33.765c0-4.798,3.903-8.701,8.701-8.701h30.307  c4.797,0,8.701,3.903,8.701,8.701V64.072z"></path><path d="M-79.91,46.743h-11.572V35.171c0-1.201-0.974-2.175-2.175-2.175s-2.175,0.974-2.175,2.175v11.572h-11.572  c-1.201,0-2.175,0.974-2.175,2.175s0.974,2.175,2.175,2.175h11.572v11.572c0,1.201,0.974,2.175,2.175,2.175s2.175-0.974,2.175-2.175  V51.094h11.572c1.201,0,2.175-0.974,2.175-2.175S-78.708,46.743-79.91,46.743z"></path><g><path d="M-93.657,20.712c-15.579,0.002-28.205,12.628-28.207,28.207c0.001,15.579,12.628,28.205,28.207,28.206   c15.578-0.001,28.205-12.627,28.206-28.206C-65.452,33.34-78.078,20.714-93.657,20.712z M-93.657,72.775   c-13.174-0.024-23.832-10.682-23.856-23.856c0.024-13.174,10.682-23.832,23.856-23.856c13.174,0.024,23.832,10.682,23.856,23.856   C-69.825,62.093-80.482,72.751-93.657,72.775z"></path><circle cx="-93.455" cy="63.114" r="2.247"></circle><path d="M-93.455,30.377c-5.984,0.001-10.832,4.849-10.833,10.833c0,1.201,0.974,2.175,2.175,2.175   c1.201,0,2.175-0.974,2.175-2.175c0.007-3.579,2.903-6.476,6.482-6.482c3.58,0.007,6.476,2.903,6.482,6.482   c-0.007,3.58-2.903,6.476-6.482,6.482c-1.201,0-2.175,0.974-2.175,2.175v6.34c0,1.201,0.974,2.175,2.175,2.175   c1.201,0,2.175-0.974,2.175-2.175v-4.384c4.941-1.007,8.657-5.375,8.658-10.613C-82.624,35.226-87.472,30.378-93.455,30.377z"></path></g><path d="M-78.503,20.714h-30.307c-7.178,0-13.051,5.873-13.051,13.051v30.307c0,7.178,5.874,13.051,13.051,13.051h30.307  c7.178,0,13.051-5.873,13.051-13.051V33.765C-65.452,26.587-71.325,20.714-78.503,20.714z M-69.803,64.072  c0,4.798-3.903,8.701-8.701,8.701h-30.307c-4.798,0-8.701-3.903-8.701-8.701V33.765c0-4.798,3.903-8.701,8.701-8.701h30.307  c4.798,0,8.701,3.903,8.701,8.701V64.072z M-76.835,37.338c0.731,0.732,0.731,1.918,0,2.65l-22.336,22.336l-1.425,0.546  l-1.359-0.695l-8.657-10.734h0c-0.65-0.805-0.524-1.986,0.282-2.635c0.805-0.65,1.985-0.523,2.636,0.282l7.347,9.111l20.862-20.861  C-78.754,36.606-77.568,36.606-76.835,37.338z"></path><path d="M-76.835,36.427c-0.732-0.732-1.919-0.732-2.65,0l-20.862,20.861l-7.347-9.111c-0.65-0.805-1.83-0.932-2.635-0.282  c-0.806,0.65-0.932,1.829-0.282,2.635h0l8.657,10.734l1.359,0.695l1.425-0.546l22.336-22.336  C-76.104,38.346-76.104,37.159-76.835,36.427z"></path><g><path d="M-73.633,28.895c-5.524-5.526-12.784-8.297-20.024-8.294c-7.24-0.002-14.5,2.769-20.024,8.294   c-5.526,5.523-8.297,12.784-8.294,20.024c-0.003,7.24,2.769,14.5,8.294,20.024c5.523,5.525,12.783,8.296,20.024,8.294   c7.24,0.002,14.5-2.769,20.024-8.294c5.525-5.524,8.297-12.784,8.294-20.024C-65.337,41.679-68.108,34.419-73.633,28.895z    M-76.709,65.867c-4.686,4.684-10.807,7.018-16.948,7.02c-6.142-0.002-12.262-2.336-16.948-7.02   c-4.684-4.686-7.018-10.807-7.02-16.948c0.003-6.141,2.336-12.262,7.02-16.948c4.686-4.684,10.806-7.018,16.948-7.02   c6.141,0.003,12.262,2.336,16.948,7.02c4.684,4.686,7.017,10.806,7.02,16.948C-69.692,55.06-72.025,61.181-76.709,65.867z"></path><path d="M-76.835,36.426c-0.732-0.732-1.919-0.732-2.65,0l-20.862,20.861l-7.347-9.111c-0.651-0.805-1.83-0.932-2.636-0.282   s-0.932,1.83-0.282,2.635h0l8.657,10.734l1.359,0.695l1.425-0.546l22.336-22.336C-76.103,38.344-76.103,37.158-76.835,36.426z"></path></g><path d="M-65.808,39.146v26.037c-0.008,6.794-5.532,12.317-12.326,12.326h-31.772c-6.794-0.008-12.318-5.532-12.326-12.326V33.411  c0.008-6.794,5.532-12.318,12.326-12.326h26.037c1.201,0,2.175,0.974,2.175,2.175c0,1.201-0.974,2.175-2.175,2.175h-26.037  c-4.372,0.008-7.968,3.604-7.976,7.976v31.772c0.008,4.372,3.604,7.967,7.976,7.975h31.772c4.372-0.008,7.967-3.604,7.975-7.975  V39.146h0c0-1.201,0.974-2.175,2.175-2.175C-66.782,36.971-65.808,37.945-65.808,39.146z M-95.248,48.144l-0.91,2.25l1.01,1.01  l2.25-0.91c0.804-0.325,1.535-0.809,2.148-1.422l19.306-19.306c0.849-0.849,0.849-2.227,0-3.076c-0.849-0.849-2.227-0.849-3.076,0  l-19.306,19.306C-94.44,46.61-94.923,47.34-95.248,48.144z M-66.047,25.395l0.115-0.115c1.133-1.133,1.133-2.969,0-4.102  c-1.133-1.133-2.969-1.133-4.102,0l-0.115,0.115c-1.133,1.133-1.133,2.969,0,4.102C-69.016,26.528-67.18,26.528-66.047,25.395z"></path><path d="M-20.738,39.672l-0.115-1.357c-0.102-1.197-1.154-2.085-2.351-1.984c-1.197,0.101-2.085,1.154-1.984,2.351h0l0.104,1.23  c-0.036,3.172-2.611,5.731-5.791,5.737c-3.18-0.006-5.755-2.564-5.791-5.737l0.104-1.23c0.101-1.197-0.787-2.25-1.984-2.351  s-2.249,0.787-2.351,1.984l-0.115,1.356l-0.008,0.184c0.001,5.603,4.541,10.143,10.144,10.144  c5.603-0.001,10.143-4.541,10.144-10.144L-20.738,39.672z"></path></svg>