<svg width="24" height="19" viewBox="0 0 24 19" fill="none" xmlns="http://www.w3.org/2000/svg">
<mask id="mask0" mask-type="alpha" maskUnits="userSpaceOnUse" x="0" y="0" width="24" height="19">
<path fill-rule="evenodd" clip-rule="evenodd" d="M0.31543 0.77832H23.6321V18.971H0.31543V0.77832Z" fill="white"/>
</mask>
<g mask="url(#mask0)">
<path fill-rule="evenodd" clip-rule="evenodd" d="M0.31543 16.9073C2.43236 18.2105 4.94717 18.971 7.64816 18.971C16.5301 18.971 21.5475 11.769 21.2455 5.30887C22.1795 4.66242 22.991 3.85337 23.6322 2.9312C22.7737 3.29654 21.852 3.54386 20.8848 3.65405C21.8719 3.08694 22.6309 2.1868 22.9875 1.1133C22.0632 1.64026 21.0394 2.02225 19.9508 2.22843C19.0775 1.33613 17.8344 0.77832 16.4582 0.77832C13.371 0.77832 11.1016 3.54484 11.7989 6.41763C7.82262 6.22614 4.2978 4.39796 1.93909 1.61871C0.685764 3.68343 1.28871 6.38433 3.41941 7.75069C2.63487 7.72718 1.89675 7.52003 1.25198 7.17574C1.20046 9.30413 2.78841 11.2939 5.08897 11.7376C4.41564 11.9139 3.67803 11.9536 2.92971 11.816C3.53673 13.6412 5.30373 14.9684 7.3977 15.0056C5.38636 16.5194 2.85319 17.1953 0.31543 16.9073Z" fill="#ADE9F5"/>
</g>
</svg>
