<svg width="21" height="24" viewBox="0 0 21 24" fill="none" xmlns="http://www.w3.org/2000/svg">
<path fill-rule="evenodd" clip-rule="evenodd" d="M13.6019 9.1497C13.971 9.1497 14.4825 8.95459 15.0111 8.31569V9.05306H16.2289V2.37592H15.0111V7.4432C14.8624 7.63327 14.532 7.94379 14.2942 7.94379C14.033 7.94379 13.9696 7.76334 13.9696 7.49496V2.375H12.751V7.95707C12.751 8.61613 12.9492 9.1497 13.6019 9.1497Z" fill="#E79ECB"/>
<path fill-rule="evenodd" clip-rule="evenodd" d="M9.43449 4.2245C9.43449 3.85856 9.59991 3.58742 9.94199 3.58742C10.316 3.58742 10.4756 3.85077 10.4756 4.2245V7.33109C10.4756 7.69474 10.2944 7.96313 9.96582 7.96313C9.62958 7.96313 9.43449 7.68284 9.43449 7.33109V4.2245ZM8.17957 7.38714C8.17957 8.56374 8.78416 9.17654 9.96549 9.17654C10.9459 9.17654 11.7168 8.50923 11.7168 7.38714V4.11475C11.7168 3.06914 10.9535 2.32031 9.96549 2.32031C8.8916 2.32031 8.17957 3.04257 8.17957 4.11475V7.38714Z" fill="#E79ECB"/>
<mask id="mask0" mask-type="alpha" maskUnits="userSpaceOnUse" x="3" y="0" width="6" height="10">
<path fill-rule="evenodd" clip-rule="evenodd" d="M3.64062 0H8.24187V9.05237H3.64062V0Z" fill="white"/>
</mask>
<g mask="url(#mask0)">
<path fill-rule="evenodd" clip-rule="evenodd" d="M5.2716 9.05278H6.64442V5.38056L8.24065 0H6.84715L5.96745 3.61818L5.02077 0H3.6394L5.2716 5.38056V9.05278Z" fill="#E79ECB"/>
</g>
<mask id="mask1" mask-type="alpha" maskUnits="userSpaceOnUse" x="0" y="10" width="21" height="14">
<path fill-rule="evenodd" clip-rule="evenodd" d="M0.714111 10.5708H20.6636V23.4562H0.714111V10.5708Z" fill="white"/>
</mask>
<g mask="url(#mask1)">
<path fill-rule="evenodd" clip-rule="evenodd" d="M18.8267 18.2947H16.607V19.4942C16.607 19.9715 16.6465 20.3836 17.114 20.3836C17.604 20.3836 17.6328 20.0479 17.6328 19.4942V19.0523H18.8267V19.5304C18.8267 20.7555 18.3102 21.498 17.0871 21.498C15.979 21.498 15.4131 20.6749 15.4131 19.5304V16.6762C15.4131 15.571 16.1278 14.8057 17.1752 14.8057C18.2886 14.8057 18.8267 15.5257 18.8267 16.6762V18.2947ZM14.5376 20.0074C14.5376 20.7943 14.2486 21.4052 13.4763 21.4052C13.0515 21.4052 12.6973 21.2472 12.3741 20.8369V21.3246H11.2027V12.7033H12.3741V15.4797C12.6353 15.154 12.9913 14.8856 13.4053 14.8856C14.2554 14.8856 14.5376 15.6171 14.5376 16.479V20.0074ZM10.0702 21.3242H8.90907V20.623C8.69511 20.8813 8.47215 21.0783 8.24154 21.2138C7.61627 21.5789 6.75769 21.5715 6.75769 20.2804V14.9654H7.91834V19.8394C7.91834 20.0959 7.97948 20.2685 8.22671 20.2685C8.45282 20.2685 8.76838 19.9731 8.90907 19.7922V14.9654H10.0702V21.3242ZM5.42195 21.3246H4.11521V13.955H2.76262V12.7033H6.7741V13.955H5.42195V21.3246ZM17.8703 10.5708H3.5074C1.96422 10.5708 0.714111 11.8459 0.714111 13.4186V20.6101C0.714111 22.182 1.96422 23.4566 3.5074 23.4566H17.8703C19.4131 23.4566 20.6636 22.182 20.6636 20.6101V13.4186C20.6636 11.8459 19.4131 10.5708 17.8703 10.5708Z" fill="#E79ECB"/>
</g>
<path fill-rule="evenodd" clip-rule="evenodd" d="M17.1254 15.9199C16.6952 15.9199 16.6067 16.2282 16.6067 16.6651V17.3081H17.632V16.6651C17.632 16.2346 17.5417 15.9199 17.1254 15.9199Z" fill="#E79ECB"/>
<path fill-rule="evenodd" clip-rule="evenodd" d="M12.6129 15.9587C12.5311 16.0013 12.4524 16.0649 12.3733 16.1529V20.115C12.4681 20.219 12.5594 20.2941 12.6484 20.339C12.8367 20.4365 13.1136 20.4448 13.2409 20.2739C13.3092 20.1846 13.3429 20.039 13.3429 19.8361V16.5518C13.3429 16.3375 13.3002 16.174 13.2184 16.0636C13.0786 15.8744 12.8161 15.8543 12.6129 15.9587Z" fill="#E79ECB"/>
</svg>
